<?xml version="1.0" encoding="UTF-8"?><svg id="Layer_1" xmlns="http://www.w3.org/2000/svg" xmlns:xlink="http://www.w3.org/1999/xlink" viewBox="0 0 518.35 252.98"><defs><style>.cls-1{fill:#fff;}.cls-2{clip-path:url(#clippath);}</style><clipPath id="clippath"><path class="cls-1" d="M363.53,68.14c.04,39.06-26.24,66.25-66.01,68.28-49.8,2.55-84.54,32.05-93.51,81.78-3.28,18.21-12.18,30.38-29.16,33.94-17.61,3.7-29.67-5.14-38.91-21.47-20.21-35.71-57.84-52.64-97.54-46.67-17.24,2.59-30.7-2.9-36.62-20.08-5.28-15.31,1.63-28.4,14.75-34.54,15.12-7.06,28.98-2.53,40.01,12.18,36.66,48.95,77.98,60.81,125.14,37.24,35.76-17.87,56.32-59.69,48.89-99.05-5.13-27.18,3.94-49.76,25.83-65.53,21.66-15.6,46.54-19.31,70.9-6.49,23.67,12.45,37.85,32.07,36.24,60.39h0Z"/></clipPath></defs><path class="cls-1" d="M363.53,68.14c.04,39.06-26.24,66.25-66.01,68.28-49.8,2.55-84.54,32.05-93.51,81.78-3.28,18.21-12.18,30.38-29.16,33.94-17.61,3.7-29.67-5.14-38.91-21.47-20.21-35.71-57.84-52.64-97.54-46.67-17.24,2.59-30.7-2.9-36.62-20.08-5.28-15.31,1.63-28.4,14.75-34.54,15.12-7.06,28.98-2.53,40.01,12.18,36.66,48.95,77.98,60.81,125.14,37.24,35.76-17.87,56.32-59.69,48.89-99.05-5.13-27.18,3.94-49.76,25.83-65.53,21.66-15.6,46.54-19.31,70.9-6.49,23.67,12.45,37.85,32.07,36.24,60.39h0Z"/><g class="cls-2"><rect class="cls-1" x="-3.5" y="-5.07" width="368.64" height="260.91"/></g><path class="cls-1" d="M263.6,228.02l13.52-30.63h8.53l13.56,30.63h-9.01l-10.59-26.39h3.41l-10.59,26.39h-8.84ZM270.99,222.02l2.23-6.34h14.97l2.23,6.34h-19.43Z"/><path class="cls-1" d="M320.43,228.63c-2.42,0-4.65-.39-6.7-1.16s-3.82-1.87-5.34-3.28c-1.52-1.41-2.7-3.1-3.54-5.05-.85-1.95-1.27-4.1-1.27-6.43s.42-4.48,1.27-6.43c.85-1.95,2.03-3.64,3.54-5.05,1.52-1.41,3.3-2.51,5.34-3.28,2.04-.77,4.27-1.16,6.7-1.16,2.83,0,5.36.49,7.59,1.47,2.23.98,4.09,2.41,5.58,4.31l-5.51,4.99c-.99-1.17-2.09-2.06-3.28-2.67s-2.51-.92-3.94-.92c-1.25,0-2.41.2-3.46.61-1.05.41-1.95,1-2.69,1.77-.74.77-1.33,1.7-1.75,2.78-.42,1.08-.63,2.28-.63,3.59s.21,2.51.63,3.59c.42,1.08,1.01,2.01,1.75,2.78.74.77,1.64,1.36,2.69,1.77,1.05.41,2.2.61,3.46.61,1.43,0,2.74-.31,3.94-.92,1.2-.61,2.29-1.52,3.28-2.71l5.51,4.99c-1.49,1.9-3.35,3.34-5.58,4.33-2.23.99-4.76,1.49-7.59,1.49Z"/><path class="cls-1" d="M350.1,228.02h-8.67v-30.63h8.67v30.63ZM362.49,216.07h-13.04v-7.18h13.04v7.18ZM361.87,197.39h8.67v30.63h-8.67v-30.63Z"/><path class="cls-1" d="M380.65,228.02v-30.63h8.67v30.63h-8.67Z"/><path class="cls-1" d="M399.42,228.02v-30.63h8.67v23.76h14.57v6.87h-23.24Z"/><path class="cls-1" d="M430.05,228.02v-30.63h8.67v23.76h14.57v6.87h-23.24Z"/><path class="cls-1" d="M469.21,221.28h16.02v6.74h-24.55v-30.63h23.98v6.74h-15.45v17.15ZM468.6,209.25h14.22v6.43h-14.22v-6.43Z"/><path class="cls-1" d="M504.75,228.63c-2.54,0-4.97-.31-7.29-.94s-4.19-1.42-5.62-2.38l2.84-6.43c1.37.88,2.95,1.6,4.75,2.17,1.79.57,3.58.85,5.36.85,1.22,0,2.19-.1,2.91-.31s1.24-.5,1.58-.88c.33-.38.5-.83.5-1.36,0-.67-.32-1.2-.96-1.6s-1.48-.73-2.52-1.01-2.16-.54-3.37-.79c-1.21-.25-2.44-.58-3.7-.98-1.25-.41-2.39-.95-3.41-1.62-1.02-.67-1.85-1.55-2.47-2.63-.63-1.08-.94-2.44-.94-4.07,0-1.81.5-3.46,1.49-4.94.99-1.49,2.49-2.68,4.51-3.59,2.01-.9,4.52-1.36,7.53-1.36,2.01,0,3.99.23,5.93.68s3.65,1.13,5.14,2.03l-2.62,6.39c-1.46-.82-2.9-1.41-4.33-1.79-1.43-.38-2.82-.57-4.16-.57-1.2,0-2.16.13-2.89.39s-1.25.6-1.58,1.01-.48.85-.48,1.31c0,.7.32,1.25.96,1.64.64.39,1.47.72,2.49.96,1.02.25,2.15.5,3.39.77,1.24.26,2.47.59,3.7.98,1.23.39,2.36.92,3.39,1.58,1.04.66,1.87,1.52,2.52,2.58.64,1.07.96,2.4.96,4,0,1.78-.5,3.42-1.51,4.92-1.01,1.5-2.52,2.71-4.53,3.61-2.01.9-4.54,1.36-7.57,1.36Z"/></svg>