<svg width="180" height="166" viewBox="0 0 180 166" fill="none" xmlns="http://www.w3.org/2000/svg" role="img" aria-labelledby="outfinityTitle outfinityDesc">
  <title id="outfinityTitle">Outfinity logo</title>
  <desc id="outfinityDesc">Outfinity wordmark with a black and white infinity symbol and blue green gradient text.</desc>
  <defs>
    <linearGradient id="outfinityTextGradient" x1="24" y1="116" x2="146" y2="156" gradientUnits="userSpaceOnUse">
      <stop stop-color="#2563EB"/>
      <stop offset="0.55" stop-color="#0EA5E9"/>
      <stop offset="1" stop-color="#10B981"/>
    </linearGradient>
    <clipPath id="outfinityIconClip">
      <rect x="10" y="10" width="148" height="92" rx="28"/>
    </clipPath>
    <clipPath id="outfinityLeftHalf">
      <rect x="10" y="10" width="74" height="92"/>
    </clipPath>
    <clipPath id="outfinityRightHalf">
      <rect x="84" y="10" width="74" height="92"/>
    </clipPath>
    <filter id="outfinityShadow" x="0" y="0" width="168" height="112" filterUnits="userSpaceOnUse" color-interpolation-filters="sRGB">
      <feOffset dy="6"/>
      <feGaussianBlur stdDeviation="6"/>
      <feColorMatrix type="matrix" values="0 0 0 0 0.0588235 0 0 0 0 0.0901961 0 0 0 0 0.164706 0 0 0 0.18 0"/>
      <feBlend in2="SourceGraphic" result="shape"/>
    </filter>
  </defs>
  <g filter="url(#outfinityShadow)">
    <g clip-path="url(#outfinityIconClip)">
      <rect x="10" y="10" width="148" height="92" rx="28" fill="#FFFFFF"/>
      <rect x="84" y="10" width="74" height="92" fill="#0F172A"/>
      <path d="M28 56C28 39.4315 40.536 28 56 28C71.464 28 82.1025 41.0394 92 56C101.897 70.9606 112.536 84 128 84C143.464 84 156 72.5685 156 56C156 39.4315 143.464 28 128 28C112.536 28 101.897 41.0394 92 56C82.1025 70.9606 71.464 84 56 84C40.536 84 28 72.5685 28 56Z" clip-path="url(#outfinityLeftHalf)" stroke="#0F172A" stroke-width="12" stroke-linecap="round" stroke-linejoin="round"/>
      <path d="M28 56C28 39.4315 40.536 28 56 28C71.464 28 82.1025 41.0394 92 56C101.897 70.9606 112.536 84 128 84C143.464 84 156 72.5685 156 56C156 39.4315 143.464 28 128 28C112.536 28 101.897 41.0394 92 56C82.1025 70.9606 71.464 84 56 84C40.536 84 28 72.5685 28 56Z" clip-path="url(#outfinityRightHalf)" stroke="#FFFFFF" stroke-width="12" stroke-linecap="round" stroke-linejoin="round"/>
    </g>
    <rect x="10" y="10" width="148" height="92" rx="28" stroke="#CBD5E1" stroke-width="1.5"/>
  </g>
  <text x="84" y="142" text-anchor="middle" fill="url(#outfinityTextGradient)" font-family="Inter, Avenir Next, system-ui, -apple-system, 'Segoe UI', sans-serif" font-size="30" font-weight="700" letter-spacing="0.4">Outfinity</text>
</svg>
