<svg width="469" height="140" viewBox="0 0 469 140" fill="none" xmlns="http://www.w3.org/2000/svg">
    <path d="M39.0722 65.141L22.3042 20.341H32.5442L49.9522 65.141H39.0722ZM4.12824 65.141L21.5362 20.341H31.7762L15.0082 65.141H4.12824ZM12.3202 56.629V47.541H41.8242V56.629H12.3202ZM137.643 65.141V20.341H147.947V65.141H137.643ZM188.643 65.909C184.035 65.909 179.961 64.9277 176.419 62.965C172.878 60.9597 170.105 58.229 168.099 54.773C166.094 51.2743 165.091 47.285 165.091 42.805C165.091 38.2823 166.094 34.293 168.099 30.837C170.105 27.3383 172.857 24.6077 176.355 22.645C179.897 20.6397 183.95 19.637 188.515 19.637C193.081 19.637 197.113 20.6397 200.611 22.645C204.153 24.6077 206.926 27.3383 208.931 30.837C210.937 34.293 211.939 38.2823 211.939 42.805C211.939 47.285 210.937 51.2743 208.931 54.773C206.969 58.229 204.238 60.9597 200.739 62.965C197.241 64.9277 193.209 65.909 188.643 65.909ZM188.643 56.437C191.161 56.437 193.379 55.861 195.299 54.709C197.219 53.557 198.713 51.957 199.779 49.909C200.846 47.8183 201.379 45.4503 201.379 42.805C201.379 40.117 200.825 37.749 199.715 35.701C198.606 33.6103 197.091 31.989 195.171 30.837C193.251 29.6423 191.033 29.045 188.515 29.045C185.998 29.045 183.779 29.6423 181.859 30.837C179.939 31.989 178.425 33.6103 177.315 35.701C176.206 37.749 175.651 40.117 175.651 42.805C175.651 45.4503 176.206 47.8183 177.315 49.909C178.425 51.957 179.961 53.557 181.923 54.709C183.886 55.861 186.126 56.437 188.643 56.437ZM229.091 65.141V20.341H239.395V55.669H258.467V65.141H229.091ZM295.216 65.909C290.608 65.909 286.533 64.9277 282.992 62.965C279.45 60.9597 276.677 58.229 274.672 54.773C272.666 51.2743 271.664 47.285 271.664 42.805C271.664 38.2823 272.666 34.293 274.672 30.837C276.677 27.3383 279.429 24.6077 282.928 22.645C286.469 20.6397 290.522 19.637 295.088 19.637C299.653 19.637 303.685 20.6397 307.184 22.645C310.725 24.6077 313.498 27.3383 315.504 30.837C317.509 34.293 318.512 38.2823 318.512 42.805C318.512 47.285 317.509 51.2743 315.504 54.773C313.541 58.229 310.81 60.9597 307.312 62.965C303.813 64.9277 299.781 65.909 295.216 65.909ZM295.216 56.437C297.733 56.437 299.952 55.861 301.872 54.709C303.792 53.557 305.285 51.957 306.352 49.909C307.418 47.8183 307.952 45.4503 307.952 42.805C307.952 40.117 307.397 37.749 306.288 35.701C305.178 33.6103 303.664 31.989 301.744 30.837C299.824 29.6423 297.605 29.045 295.088 29.045C292.57 29.045 290.352 29.6423 288.432 30.837C286.512 31.989 284.997 33.6103 283.888 35.701C282.778 37.749 282.224 40.117 282.224 42.805C282.224 45.4503 282.778 47.8183 283.888 49.909C284.997 51.957 286.533 53.557 288.496 54.709C290.458 55.861 292.698 56.437 295.216 56.437ZM356.719 65.909C352.111 65.909 348.037 64.9277 344.495 62.965C340.997 60.9597 338.245 58.229 336.239 54.773C334.234 51.2743 333.231 47.2637 333.231 42.741C333.231 38.2183 334.234 34.229 336.239 30.773C338.245 27.2743 340.997 24.5437 344.495 22.581C348.037 20.5757 352.111 19.573 356.719 19.573C359.578 19.573 362.159 19.9997 364.463 20.853C366.81 21.6637 368.858 22.7943 370.607 24.245C372.357 25.6957 373.807 27.3597 374.959 29.237L366.447 34.357C365.807 33.333 364.954 32.4157 363.887 31.605C362.863 30.7943 361.733 30.1757 360.495 29.749C359.258 29.2797 357.999 29.045 356.719 29.045C354.202 29.045 351.962 29.621 349.999 30.773C348.079 31.925 346.565 33.5463 345.455 35.637C344.346 37.685 343.791 40.053 343.791 42.741C343.791 45.429 344.325 47.8183 345.391 49.909C346.458 51.957 347.994 53.5783 349.999 54.773C352.005 55.9677 354.33 56.565 356.975 56.565C358.981 56.565 360.751 56.181 362.287 55.413C363.823 54.645 365.039 53.5783 365.935 52.213C366.831 50.8477 367.279 49.2477 367.279 47.413L377.071 45.749C377.071 50.101 376.197 53.7917 374.447 56.821C372.698 59.8077 370.309 62.069 367.279 63.605C364.25 65.141 360.73 65.909 356.719 65.909ZM357.039 48.501V40.565H377.071V46.645L371.311 48.501H357.039ZM393.356 65.141V20.341H403.66V65.141H393.356ZM443.46 65.909C439.022 65.909 435.097 64.9277 431.684 62.965C428.313 60.9597 425.646 58.229 423.684 54.773C421.764 51.2743 420.804 47.2637 420.804 42.741C420.804 38.2183 421.764 34.229 423.684 30.773C425.646 27.2743 428.313 24.5437 431.684 22.581C435.097 20.5757 439.022 19.573 443.46 19.573C446.702 19.573 449.668 20.149 452.356 21.301C455.086 22.4103 457.433 23.989 459.396 26.037C461.401 28.085 462.937 30.453 464.004 33.141L454.34 36.405C453.7 34.9117 452.825 33.6103 451.716 32.501C450.649 31.3917 449.412 30.5383 448.004 29.941C446.638 29.3437 445.124 29.045 443.46 29.045C441.113 29.045 439.022 29.621 437.188 30.773C435.353 31.925 433.924 33.5463 432.9 35.637C431.876 37.685 431.364 40.053 431.364 42.741C431.364 45.429 431.876 47.8183 432.9 49.909C433.966 51.957 435.417 53.5783 437.252 54.773C439.129 55.925 441.262 56.501 443.652 56.501C445.401 56.501 446.958 56.181 448.324 55.541C449.689 54.901 450.862 54.005 451.844 52.853C452.868 51.701 453.742 50.3783 454.468 48.885L464.132 52.149C463.108 54.8797 461.593 57.2903 459.588 59.381C457.582 61.429 455.214 63.029 452.484 64.181C449.753 65.333 446.745 65.909 443.46 65.909ZM4.51701 129.141V84.341H22.117C25.3597 84.341 28.2397 84.981 30.757 86.261C33.2743 87.4983 35.237 89.2477 36.645 91.509C38.0957 93.7277 38.821 96.2877 38.821 99.189C38.821 102.09 38.0957 104.672 36.645 106.933C35.1943 109.194 33.189 110.965 30.629 112.245C28.1117 113.482 25.2103 114.101 21.925 114.101H14.821V129.141H4.51701ZM28.837 129.141L18.725 111.349L26.469 105.653L40.613 129.141H28.837ZM14.821 104.629H21.797C22.9917 104.629 24.0583 104.394 24.997 103.925C25.9357 103.456 26.661 102.816 27.173 102.005C27.7277 101.152 28.005 100.213 28.005 99.189C28.005 97.6103 27.4077 96.309 26.213 95.285C25.061 94.261 23.525 93.749 21.605 93.749H14.821V104.629ZM64.952 129.141V84.341H94.136V93.813H75.256V102.005H91.064V111.157H75.256V119.669H94.456V129.141H64.952ZM136.435 129.909C134.259 129.909 132.168 129.632 130.163 129.077C128.2 128.48 126.408 127.69 124.787 126.709C123.208 125.685 121.907 124.554 120.883 123.317C119.859 122.037 119.219 120.672 118.963 119.221L129.139 116.341C129.608 117.578 130.419 118.666 131.571 119.605C132.765 120.501 134.259 120.97 136.051 121.013C137.8 121.056 139.251 120.65 140.403 119.797C141.597 118.944 142.195 117.834 142.195 116.469C142.195 115.402 141.768 114.464 140.915 113.653C140.104 112.842 138.931 112.224 137.395 111.797L131.059 110.197C128.84 109.642 126.899 108.768 125.235 107.573C123.613 106.378 122.333 104.928 121.395 103.221C120.499 101.472 120.051 99.4877 120.051 97.269C120.051 92.9597 121.48 89.6103 124.339 87.221C127.197 84.789 131.229 83.573 136.435 83.573C139.293 83.573 141.789 83.9783 143.923 84.789C146.056 85.557 147.869 86.709 149.363 88.245C150.899 89.781 152.115 91.701 153.011 94.005L142.899 97.013C142.557 95.861 141.811 94.8157 140.659 93.877C139.549 92.9383 138.099 92.469 136.307 92.469C134.515 92.469 133.107 92.8743 132.083 93.685C131.101 94.4957 130.611 95.669 130.611 97.205C130.611 98.2717 131.016 99.1677 131.827 99.893C132.637 100.576 133.747 101.088 135.155 101.429L141.491 103.029C145.117 103.925 147.933 105.61 149.939 108.085C151.987 110.517 153.011 113.29 153.011 116.405C153.011 119.221 152.349 121.632 151.027 123.637C149.747 125.642 147.869 127.2 145.395 128.309C142.92 129.376 139.933 129.909 136.435 129.909ZM178.197 129.141V84.341H207.381V93.813H188.501V102.005H204.309V111.157H188.501V119.669H207.701V129.141H178.197ZM265.424 129.141L248.656 84.341H258.896L276.304 129.141H265.424ZM230.479 129.141L247.887 84.341H258.128L241.359 129.141H230.479ZM238.671 120.629V111.541H268.175V120.629H238.671ZM299.754 129.141V84.341H317.354C320.597 84.341 323.477 84.981 325.994 86.261C328.512 87.4983 330.474 89.2477 331.882 91.509C333.333 93.7277 334.058 96.2877 334.058 99.189C334.058 102.09 333.333 104.672 331.882 106.933C330.432 109.194 328.426 110.965 325.866 112.245C323.349 113.482 320.448 114.101 317.162 114.101H310.058V129.141H299.754ZM324.074 129.141L313.962 111.349L321.706 105.653L335.85 129.141H324.074ZM310.058 104.629H317.034C318.229 104.629 319.296 104.394 320.234 103.925C321.173 103.456 321.898 102.816 322.41 102.005C322.965 101.152 323.242 100.213 323.242 99.189C323.242 97.6103 322.645 96.309 321.45 95.285C320.298 94.261 318.762 93.749 316.842 93.749H310.058V104.629ZM380.413 129.909C375.976 129.909 372.051 128.928 368.637 126.965C365.267 124.96 362.6 122.229 360.637 118.773C358.717 115.274 357.757 111.264 357.757 106.741C357.757 102.218 358.717 98.229 360.637 94.773C362.6 91.2743 365.267 88.5437 368.637 86.581C372.051 84.5757 375.976 83.573 380.413 83.573C383.656 83.573 386.621 84.149 389.309 85.301C392.04 86.4103 394.387 87.989 396.349 90.037C398.355 92.085 399.891 94.453 400.957 97.141L391.293 100.405C390.653 98.9117 389.779 97.6103 388.669 96.501C387.603 95.3917 386.365 94.5383 384.957 93.941C383.592 93.3437 382.077 93.045 380.413 93.045C378.067 93.045 375.976 93.621 374.141 94.773C372.307 95.925 370.877 97.5463 369.853 99.637C368.829 101.685 368.317 104.053 368.317 106.741C368.317 109.429 368.829 111.818 369.853 113.909C370.92 115.957 372.371 117.578 374.205 118.773C376.083 119.925 378.216 120.501 380.605 120.501C382.355 120.501 383.912 120.181 385.277 119.541C386.643 118.901 387.816 118.005 388.797 116.853C389.821 115.701 390.696 114.378 391.421 112.885L401.085 116.149C400.061 118.88 398.547 121.29 396.541 123.381C394.536 125.429 392.168 127.029 389.437 128.181C386.707 129.333 383.699 129.909 380.413 129.909ZM454.177 129.141V84.341H464.481V129.141H454.177ZM425.249 129.141V84.277H435.553V129.141H425.249ZM432.545 111.029V101.557H459.681V111.029H432.545Z" fill="#C0DEED"/>
    <path d="M60.001 13.645C60.0008 12.5403 60.8962 11.6448 62.0008 11.6447L82.5292 11.6429C83.4574 11.6428 84.3334 12.0724 84.9016 12.8064L95.0781 25.9511C95.6243 26.6566 95.6371 27.6386 95.1095 28.3581L91.2798 33.5804C90.8884 34.1141 90.0958 34.1272 89.687 33.6067L80.4048 21.788C79.836 21.0639 78.9662 20.641 78.0454 20.641L70.1388 20.641C69.291 20.641 68.8279 21.6298 69.3706 22.2812L83.9394 39.7653C84.85 40.8581 84.868 42.4401 83.9825 43.5533L69.2945 62.0185C68.7733 62.6737 69.2399 63.641 70.0771 63.641L78.0458 63.641C78.9664 63.641 79.836 63.2184 80.4048 62.4945L89.7512 50.599C90.1408 50.1032 90.8864 50.0873 91.2968 50.566L95.4217 55.3784C96.0489 56.1102 96.065 57.1852 95.46 57.9355L84.9045 71.0243C84.335 71.7305 83.4765 72.141 82.5693 72.141L62.0038 72.141C60.8993 72.141 60.0039 71.2457 60.0038 70.1413L60.0027 60.1816C60.0026 59.5079 60.2293 58.8538 60.6462 58.3247L72.6927 43.035C72.893 42.7808 73.002 42.4666 73.0024 42.143V42.143C73.0027 41.8183 72.8936 41.503 72.6926 41.248L60.646 25.9591C60.2292 25.4302 60.0025 24.7763 60.0024 24.1029L60.001 13.645Z" fill="#C0DEED"/>
    <path d="M112.968 21.141C112.357 21.141 111.779 21.4208 111.399 21.9006L95.9808 41.4006C95.4059 42.1276 95.4059 43.1544 95.9808 43.8815L111.399 63.3815C111.779 63.8612 112.357 64.141 112.968 64.141H121.427C122.264 64.141 122.731 63.1737 122.209 62.5185L107.521 44.0526C106.635 42.9394 106.653 41.3573 107.564 40.2645L122.133 22.7812C122.676 22.1299 122.213 21.141 121.365 21.141H112.968Z" fill="#C0DEED"/>
</svg>
