<svg xmlns="http://www.w3.org/2000/svg" xmlns:xlink="http://www.w3.org/1999/xlink" width="1920" zoomAndPan="magnify" viewBox="0 0 1440 809.999993" height="1080" preserveAspectRatio="xMidYMid meet" version="1.0"><defs><g/></defs><rect x="-144" width="1728" fill="#ffffff" y="-80.999999" height="971.999992" fill-opacity="1"/><rect x="-144" width="1728" fill="#000000" y="-80.999999" height="971.999992" fill-opacity="1"/><path fill="#c0deed" d="M 169.636719 330.566406 L 142.824219 258.808594 L 159.199219 258.808594 L 187.039062 330.566406 Z M 113.757812 330.566406 L 141.597656 258.808594 L 157.972656 258.808594 L 131.15625 330.566406 Z M 126.859375 316.933594 L 126.859375 302.375 L 174.039062 302.375 L 174.039062 316.933594 Z M 327.265625 330.566406 L 327.265625 258.808594 L 343.742188 258.808594 L 343.742188 330.566406 Z M 408.824219 331.796875 C 401.453125 331.796875 394.9375 330.226562 389.273438 327.082031 C 383.613281 323.867188 379.175781 319.496094 375.96875 313.960938 C 372.761719 308.355469 371.160156 301.964844 371.160156 294.789062 C 371.160156 287.542969 372.761719 281.15625 375.96875 275.617188 C 379.175781 270.015625 383.578125 265.640625 389.171875 262.496094 C 394.835938 259.285156 401.316406 257.679688 408.617188 257.679688 C 415.917969 257.679688 422.367188 259.285156 427.960938 262.496094 C 433.625 265.640625 438.058594 270.015625 441.265625 275.617188 C 444.472656 281.15625 446.074219 287.542969 446.074219 294.789062 C 446.074219 301.964844 444.472656 308.355469 441.265625 313.960938 C 438.128906 319.496094 433.761719 323.867188 428.164062 327.082031 C 422.570312 330.226562 416.125 331.796875 408.824219 331.796875 Z M 408.824219 316.625 C 412.847656 316.625 416.394531 315.703125 419.464844 313.855469 C 422.535156 312.011719 424.925781 309.449219 426.628906 306.167969 C 428.335938 302.820312 429.1875 299.027344 429.1875 294.789062 C 429.1875 290.484375 428.304688 286.691406 426.527344 283.410156 C 424.753906 280.0625 422.332031 277.464844 419.261719 275.617188 C 416.191406 273.707031 412.644531 272.75 408.617188 272.75 C 404.59375 272.75 401.042969 273.707031 397.972656 275.617188 C 394.902344 277.464844 392.484375 280.0625 390.707031 283.410156 C 388.933594 286.691406 388.046875 290.484375 388.046875 294.789062 C 388.046875 299.027344 388.933594 302.820312 390.707031 306.167969 C 392.484375 309.449219 394.9375 312.011719 398.078125 313.855469 C 401.214844 315.703125 404.796875 316.625 408.824219 316.625 Z M 473.503906 330.566406 L 473.503906 258.808594 L 489.980469 258.808594 L 489.980469 315.394531 L 520.480469 315.394531 L 520.480469 330.566406 Z M 579.246094 331.796875 C 571.878906 331.796875 565.363281 330.226562 559.699219 327.082031 C 554.035156 323.867188 549.601562 319.496094 546.394531 313.960938 C 543.1875 308.355469 541.585938 301.964844 541.585938 294.789062 C 541.585938 287.542969 543.1875 281.15625 546.394531 275.617188 C 549.601562 270.015625 554 265.640625 559.597656 262.496094 C 565.257812 259.285156 571.742188 257.679688 579.042969 257.679688 C 586.34375 257.679688 592.789062 259.285156 598.386719 262.496094 C 604.046875 265.640625 608.480469 270.015625 611.691406 275.617188 C 614.894531 281.15625 616.5 287.542969 616.5 294.789062 C 616.5 301.964844 614.894531 308.355469 611.691406 313.960938 C 608.550781 319.496094 604.183594 323.867188 598.589844 327.082031 C 592.996094 330.226562 586.546875 331.796875 579.246094 331.796875 Z M 579.246094 316.625 C 583.273438 316.625 586.820312 315.703125 589.890625 313.855469 C 592.960938 312.011719 595.347656 309.449219 597.054688 306.167969 C 598.757812 302.820312 599.613281 299.027344 599.613281 294.789062 C 599.613281 290.484375 598.726562 286.691406 596.953125 283.410156 C 595.175781 280.0625 592.757812 277.464844 589.6875 275.617188 C 586.617188 273.707031 583.066406 272.75 579.042969 272.75 C 575.015625 272.75 571.46875 273.707031 568.398438 275.617188 C 565.328125 277.464844 562.90625 280.0625 561.132812 283.410156 C 559.355469 286.691406 558.472656 290.484375 558.472656 294.789062 C 558.472656 299.027344 559.355469 302.820312 561.132812 306.167969 C 562.90625 309.449219 565.363281 312.011719 568.5 313.855469 C 571.636719 315.703125 575.21875 316.625 579.246094 316.625 Z M 677.597656 331.796875 C 670.230469 331.796875 663.714844 330.226562 658.050781 327.082031 C 652.457031 323.867188 648.054688 319.496094 644.847656 313.960938 C 641.640625 308.355469 640.039062 301.929688 640.039062 294.6875 C 640.039062 287.441406 641.640625 281.050781 644.847656 275.515625 C 648.054688 269.914062 652.457031 265.539062 658.050781 262.394531 C 663.714844 259.183594 670.230469 257.578125 677.597656 257.578125 C 682.171875 257.578125 686.296875 258.261719 689.980469 259.625 C 693.734375 260.925781 697.011719 262.738281 699.808594 265.058594 C 702.605469 267.382812 704.925781 270.050781 706.765625 273.054688 L 693.15625 281.257812 C 692.132812 279.617188 690.765625 278.148438 689.0625 276.847656 C 687.421875 275.550781 685.617188 274.558594 683.636719 273.875 C 681.660156 273.125 679.644531 272.75 677.597656 272.75 C 673.574219 272.75 669.992188 273.671875 666.851562 275.515625 C 663.78125 277.363281 661.359375 279.957031 659.585938 283.308594 C 657.8125 286.589844 656.925781 290.382812 656.925781 294.6875 C 656.925781 298.992188 657.777344 302.820312 659.484375 306.167969 C 661.191406 309.449219 663.644531 312.046875 666.851562 313.960938 C 670.058594 315.871094 673.777344 316.828125 678.007812 316.828125 C 681.214844 316.828125 684.046875 316.214844 686.503906 314.984375 C 688.957031 313.753906 690.902344 312.046875 692.335938 309.859375 C 693.769531 307.671875 694.484375 305.109375 694.484375 302.171875 L 710.144531 299.503906 C 710.144531 306.476562 708.746094 312.386719 705.949219 317.238281 C 703.152344 322.023438 699.332031 325.644531 694.484375 328.105469 C 689.640625 330.566406 684.011719 331.796875 677.597656 331.796875 Z M 678.109375 303.914062 L 678.109375 291.203125 L 710.144531 291.203125 L 710.144531 300.941406 L 700.933594 303.914062 Z M 736.1875 330.566406 L 736.1875 258.808594 L 752.664062 258.808594 L 752.664062 330.566406 Z M 816.308594 331.796875 C 809.210938 331.796875 802.933594 330.226562 797.476562 327.082031 C 792.085938 323.867188 787.820312 319.496094 784.683594 313.960938 C 781.613281 308.355469 780.078125 301.929688 780.078125 294.6875 C 780.078125 287.441406 781.613281 281.050781 784.683594 275.515625 C 787.820312 269.914062 792.085938 265.539062 797.476562 262.394531 C 802.933594 259.183594 809.210938 257.578125 816.308594 257.578125 C 821.492188 257.578125 826.238281 258.5 830.535156 260.34375 C 834.902344 262.121094 838.652344 264.648438 841.792969 267.929688 C 845 271.210938 847.457031 275.003906 849.160156 279.308594 L 833.707031 284.539062 C 832.683594 282.144531 831.285156 280.0625 829.511719 278.285156 C 827.804688 276.507812 825.828125 275.140625 823.574219 274.183594 C 821.390625 273.226562 818.96875 272.75 816.308594 272.75 C 812.554688 272.75 809.210938 273.671875 806.277344 275.515625 C 803.34375 277.363281 801.058594 279.957031 799.421875 283.308594 C 797.785156 286.589844 796.964844 290.382812 796.964844 294.6875 C 796.964844 298.992188 797.785156 302.820312 799.421875 306.167969 C 801.125 309.449219 803.445312 312.046875 806.382812 313.960938 C 809.382812 315.804688 812.792969 316.726562 816.617188 316.726562 C 819.414062 316.726562 821.902344 316.214844 824.085938 315.191406 C 826.269531 314.164062 828.144531 312.730469 829.714844 310.882812 C 831.355469 309.039062 832.75 306.921875 833.914062 304.527344 L 849.367188 309.757812 C 847.730469 314.128906 845.304688 317.992188 842.101562 321.339844 C 838.890625 324.621094 835.105469 327.183594 830.738281 329.027344 C 826.371094 330.875 821.5625 331.796875 816.308594 331.796875 Z M 114.378906 433.082031 L 114.378906 361.320312 L 142.523438 361.320312 C 147.710938 361.320312 152.316406 362.347656 156.339844 364.394531 C 160.367188 366.378906 163.503906 369.179688 165.757812 372.800781 C 168.078125 376.355469 169.238281 380.457031 169.238281 385.105469 C 169.238281 389.75 168.078125 393.886719 165.757812 397.507812 C 163.4375 401.128906 160.230469 403.96875 156.136719 406.015625 C 152.109375 408 147.472656 408.988281 142.21875 408.988281 L 130.859375 408.988281 L 130.859375 433.082031 Z M 153.269531 433.082031 L 137.101562 404.582031 L 149.484375 395.457031 L 172.101562 433.082031 Z M 130.859375 393.816406 L 142.011719 393.816406 C 143.921875 393.816406 145.628906 393.441406 147.128906 392.691406 C 148.632812 391.9375 149.792969 390.914062 150.609375 389.613281 C 151.496094 388.25 151.941406 386.746094 151.941406 385.105469 C 151.941406 382.574219 150.984375 380.492188 149.074219 378.851562 C 147.234375 377.210938 144.777344 376.390625 141.707031 376.390625 L 130.859375 376.390625 Z M 211.023438 433.082031 L 211.023438 361.320312 L 257.691406 361.320312 L 257.691406 376.492188 L 227.5 376.492188 L 227.5 389.613281 L 252.78125 389.613281 L 252.78125 404.273438 L 227.5 404.273438 L 227.5 417.910156 L 258.203125 417.910156 L 258.203125 433.082031 Z M 325.335938 434.3125 C 321.855469 434.3125 318.511719 433.867188 315.304688 432.976562 C 312.164062 432.023438 309.300781 430.757812 306.707031 429.183594 C 304.183594 427.546875 302.101562 425.734375 300.464844 423.753906 C 298.828125 421.703125 297.804688 419.515625 297.394531 417.191406 L 313.667969 412.578125 C 314.417969 414.558594 315.714844 416.300781 317.554688 417.804688 C 319.464844 419.242188 321.855469 419.992188 324.71875 420.0625 C 327.519531 420.128906 329.839844 419.480469 331.679688 418.113281 C 333.589844 416.746094 334.546875 414.96875 334.546875 412.78125 C 334.546875 411.074219 333.863281 409.570312 332.5 408.273438 C 331.203125 406.972656 329.328125 405.984375 326.871094 405.300781 L 316.738281 402.738281 C 313.1875 401.847656 310.085938 400.449219 307.425781 398.535156 C 304.832031 396.621094 302.785156 394.296875 301.285156 391.5625 C 299.851562 388.761719 299.132812 385.582031 299.132812 382.027344 C 299.132812 375.125 301.417969 369.761719 305.992188 365.933594 C 310.5625 362.039062 317.007812 360.089844 325.335938 360.089844 C 329.90625 360.089844 333.898438 360.738281 337.308594 362.039062 C 340.71875 363.269531 343.621094 365.113281 346.007812 367.574219 C 348.464844 370.035156 350.410156 373.109375 351.84375 376.800781 L 335.671875 381.617188 C 335.125 379.773438 333.933594 378.097656 332.089844 376.59375 C 330.316406 375.09375 327.996094 374.339844 325.128906 374.339844 C 322.265625 374.339844 320.011719 374.988281 318.375 376.289062 C 316.804688 377.585938 316.019531 379.464844 316.019531 381.925781 C 316.019531 383.636719 316.667969 385.070312 317.964844 386.230469 C 319.261719 387.324219 321.035156 388.144531 323.289062 388.691406 L 333.421875 391.253906 C 339.21875 392.691406 343.722656 395.390625 346.929688 399.355469 C 350.203125 403.25 351.84375 407.691406 351.84375 412.679688 C 351.84375 417.191406 350.785156 421.054688 348.667969 424.265625 C 346.621094 427.476562 343.621094 429.972656 339.664062 431.75 C 335.707031 433.457031 330.929688 434.3125 325.335938 434.3125 Z M 392.117188 433.082031 L 392.117188 361.320312 L 438.785156 361.320312 L 438.785156 376.492188 L 408.59375 376.492188 L 408.59375 389.613281 L 433.875 389.613281 L 433.875 404.273438 L 408.59375 404.273438 L 408.59375 417.910156 L 439.296875 417.910156 L 439.296875 433.082031 Z M 531.605469 433.082031 L 504.792969 361.320312 L 521.167969 361.320312 L 549.003906 433.082031 Z M 475.722656 433.082031 L 503.5625 361.320312 L 519.9375 361.320312 L 493.121094 433.082031 Z M 488.824219 419.445312 L 488.824219 404.890625 L 536.003906 404.890625 L 536.003906 419.445312 Z M 586.503906 433.082031 L 586.503906 361.320312 L 614.648438 361.320312 C 619.835938 361.320312 624.441406 362.347656 628.464844 364.394531 C 632.492188 366.378906 635.628906 369.179688 637.878906 372.800781 C 640.203125 376.355469 641.359375 380.457031 641.359375 385.105469 C 641.359375 389.75 640.203125 393.886719 637.878906 397.507812 C 635.5625 401.128906 632.355469 403.96875 628.261719 406.015625 C 624.234375 408 619.597656 408.988281 614.339844 408.988281 L 602.980469 408.988281 L 602.980469 433.082031 Z M 625.394531 433.082031 L 609.222656 404.582031 L 621.609375 395.457031 L 644.226562 433.082031 Z M 602.980469 393.816406 L 614.136719 393.816406 C 616.046875 393.816406 617.753906 393.441406 619.253906 392.691406 C 620.753906 391.9375 621.914062 390.914062 622.734375 389.613281 C 623.621094 388.25 624.0625 386.746094 624.0625 385.105469 C 624.0625 382.574219 623.109375 380.492188 621.199219 378.851562 C 619.355469 377.210938 616.898438 376.390625 613.828125 376.390625 L 602.980469 376.390625 Z M 715.488281 434.3125 C 708.394531 434.3125 702.117188 432.738281 696.65625 429.59375 C 691.269531 426.382812 687.003906 422.007812 683.863281 416.472656 C 680.792969 410.867188 679.257812 404.445312 679.257812 397.199219 C 679.257812 389.957031 680.792969 383.566406 683.863281 378.03125 C 687.003906 372.425781 691.269531 368.054688 696.65625 364.910156 C 702.117188 361.695312 708.394531 360.089844 715.488281 360.089844 C 720.675781 360.089844 725.414062 361.011719 729.714844 362.859375 C 734.082031 364.636719 737.835938 367.164062 740.972656 370.445312 C 744.179688 373.726562 746.636719 377.519531 748.339844 381.824219 L 732.886719 387.050781 C 731.863281 384.660156 730.464844 382.574219 728.691406 380.796875 C 726.984375 379.023438 725.007812 377.65625 722.753906 376.699219 C 720.570312 375.742188 718.148438 375.261719 715.488281 375.261719 C 711.738281 375.261719 708.394531 376.183594 705.457031 378.03125 C 702.527344 379.875 700.238281 382.472656 698.601562 385.820312 C 696.964844 389.101562 696.144531 392.894531 696.144531 397.199219 C 696.144531 401.507812 696.964844 405.332031 698.601562 408.683594 C 700.308594 411.964844 702.628906 414.558594 705.5625 416.472656 C 708.5625 418.320312 711.976562 419.242188 715.796875 419.242188 C 718.59375 419.242188 721.082031 418.730469 723.265625 417.703125 C 725.449219 416.679688 727.328125 415.242188 728.894531 413.398438 C 730.53125 411.554688 731.933594 409.433594 733.089844 407.042969 L 748.546875 412.269531 C 746.910156 416.644531 744.488281 420.503906 741.277344 423.855469 C 738.074219 427.136719 734.285156 429.699219 729.917969 431.542969 C 725.554688 433.386719 720.742188 434.3125 715.488281 434.3125 Z M 833.445312 433.082031 L 833.445312 361.320312 L 849.925781 361.320312 L 849.925781 433.082031 Z M 787.1875 433.082031 L 787.1875 361.21875 L 803.664062 361.21875 L 803.664062 433.082031 Z M 798.855469 404.070312 L 798.855469 388.898438 L 842.25 388.898438 L 842.25 404.070312 Z M 798.855469 404.070312 " fill-opacity="1" fill-rule="nonzero"/><path fill="#c0deed" d="M 203.105469 248.082031 C 203.105469 246.3125 204.539062 244.878906 206.304688 244.878906 L 239.132812 244.875 C 240.617188 244.875 242.015625 245.5625 242.925781 246.738281 L 259.199219 267.792969 C 260.074219 268.921875 260.09375 270.496094 259.25 271.648438 L 253.125 280.011719 C 252.5 280.867188 251.230469 280.890625 250.578125 280.054688 L 235.734375 261.125 C 234.824219 259.964844 233.433594 259.289062 231.960938 259.289062 L 219.316406 259.289062 C 217.960938 259.289062 217.222656 260.871094 218.089844 261.914062 L 241.386719 289.921875 C 242.84375 291.671875 242.871094 294.203125 241.457031 295.988281 L 217.96875 325.566406 C 217.132812 326.613281 217.878906 328.164062 219.21875 328.164062 L 231.960938 328.164062 C 233.433594 328.164062 234.824219 327.488281 235.734375 326.328125 L 250.679688 307.273438 C 251.304688 306.480469 252.496094 306.453125 253.152344 307.21875 L 259.75 314.929688 C 260.753906 316.101562 260.777344 317.824219 259.808594 319.023438 L 242.929688 339.992188 C 242.019531 341.121094 240.648438 341.777344 239.195312 341.777344 L 206.308594 341.777344 C 204.542969 341.777344 203.109375 340.34375 203.109375 338.574219 L 203.109375 322.621094 C 203.109375 321.542969 203.472656 320.496094 204.136719 319.648438 L 223.402344 295.15625 C 223.722656 294.75 223.898438 294.246094 223.898438 293.730469 C 223.898438 293.207031 223.722656 292.703125 223.402344 292.296875 L 204.136719 267.804688 C 203.472656 266.957031 203.109375 265.910156 203.109375 264.832031 Z M 203.105469 248.082031 " fill-opacity="1" fill-rule="nonzero"/><path fill="#c0deed" d="M 287.808594 260.089844 C 286.832031 260.089844 285.90625 260.535156 285.300781 261.304688 L 260.644531 292.539062 C 259.722656 293.703125 259.722656 295.347656 260.644531 296.511719 L 285.300781 327.75 C 285.90625 328.515625 286.832031 328.964844 287.808594 328.964844 L 301.335938 328.964844 C 302.671875 328.964844 303.421875 327.414062 302.585938 326.367188 L 279.097656 296.789062 C 277.679688 295.003906 277.710938 292.46875 279.167969 290.71875 L 302.464844 262.714844 C 303.332031 261.671875 302.59375 260.089844 301.234375 260.089844 Z M 287.808594 260.089844 " fill-opacity="1" fill-rule="nonzero"/><g fill="#ffffff" fill-opacity="1"><g transform="translate(107.153914, 532.805561)"><g><path d="M 22.75 0.5 C 19.050781 0.5 15.738281 -0.0976562 12.8125 -1.296875 C 9.882812 -2.492188 7.546875 -4.269531 5.796875 -6.625 C 4.046875 -8.976562 3.125 -11.8125 3.03125 -15.125 L 16.125 -15.125 C 16.320312 -13.25 16.972656 -11.816406 18.078125 -10.828125 C 19.179688 -9.847656 20.617188 -9.359375 22.390625 -9.359375 C 24.210938 -9.359375 25.648438 -9.773438 26.703125 -10.609375 C 27.765625 -11.453125 28.296875 -12.617188 28.296875 -14.109375 C 28.296875 -15.359375 27.875 -16.390625 27.03125 -17.203125 C 26.195312 -18.023438 25.164062 -18.695312 23.9375 -19.21875 C 22.71875 -19.75 20.976562 -20.351562 18.71875 -21.03125 C 15.457031 -22.03125 12.789062 -23.035156 10.71875 -24.046875 C 8.65625 -25.054688 6.878906 -26.546875 5.390625 -28.515625 C 3.910156 -30.484375 3.171875 -33.050781 3.171875 -36.21875 C 3.171875 -40.914062 4.875 -44.597656 8.28125 -47.265625 C 11.6875 -49.929688 16.125 -51.265625 21.59375 -51.265625 C 27.164062 -51.265625 31.65625 -49.929688 35.0625 -47.265625 C 38.46875 -44.597656 40.289062 -40.890625 40.53125 -36.140625 L 27.21875 -36.140625 C 27.125 -37.773438 26.523438 -39.0625 25.421875 -40 C 24.316406 -40.9375 22.898438 -41.40625 21.171875 -41.40625 C 19.679688 -41.40625 18.476562 -41.007812 17.5625 -40.21875 C 16.65625 -39.425781 16.203125 -38.285156 16.203125 -36.796875 C 16.203125 -35.160156 16.96875 -33.882812 18.5 -32.96875 C 20.039062 -32.0625 22.441406 -31.082031 25.703125 -30.03125 C 28.960938 -28.925781 31.613281 -27.867188 33.65625 -26.859375 C 35.695312 -25.847656 37.460938 -24.378906 38.953125 -22.453125 C 40.441406 -20.535156 41.1875 -18.066406 41.1875 -15.046875 C 41.1875 -12.171875 40.453125 -9.554688 38.984375 -7.203125 C 37.523438 -4.847656 35.398438 -2.972656 32.609375 -1.578125 C 29.828125 -0.191406 26.539062 0.5 22.75 0.5 Z M 22.75 0.5 "/></g></g></g><g fill="#ffffff" fill-opacity="1"><g transform="translate(151.433896, 532.805561)"><g><path d="M 26.859375 -10.4375 L 26.859375 0 L 20.59375 0 C 16.125 0 12.640625 -1.085938 10.140625 -3.265625 C 7.648438 -5.453125 6.40625 -9.019531 6.40625 -13.96875 L 6.40625 -29.953125 L 1.515625 -29.953125 L 1.515625 -40.171875 L 6.40625 -40.171875 L 6.40625 -49.96875 L 18.71875 -49.96875 L 18.71875 -40.171875 L 26.78125 -40.171875 L 26.78125 -29.953125 L 18.71875 -29.953125 L 18.71875 -13.828125 C 18.71875 -12.628906 19.003906 -11.765625 19.578125 -11.234375 C 20.160156 -10.703125 21.125 -10.4375 22.46875 -10.4375 Z M 26.859375 -10.4375 "/></g></g></g><g fill="#ffffff" fill-opacity="1"><g transform="translate(180.665881, 532.805561)"><g><path d="M 16.78125 -33.484375 C 18.21875 -35.691406 20.015625 -37.429688 22.171875 -38.703125 C 24.335938 -39.972656 26.738281 -40.609375 29.375 -40.609375 L 29.375 -27.578125 L 25.984375 -27.578125 C 22.921875 -27.578125 20.617188 -26.914062 19.078125 -25.59375 C 17.546875 -24.269531 16.78125 -21.953125 16.78125 -18.640625 L 16.78125 0 L 4.46875 0 L 4.46875 -40.171875 L 16.78125 -40.171875 Z M 16.78125 -33.484375 "/></g></g></g><g fill="#ffffff" fill-opacity="1"><g transform="translate(211.481866, 532.805561)"><g><path d="M 2.015625 -20.15625 C 2.015625 -24.289062 2.796875 -27.914062 4.359375 -31.03125 C 5.921875 -34.15625 8.046875 -36.554688 10.734375 -38.234375 C 13.421875 -39.910156 16.421875 -40.75 19.734375 -40.75 C 22.554688 -40.75 25.035156 -40.171875 27.171875 -39.015625 C 29.316406 -37.867188 30.960938 -36.359375 32.109375 -34.484375 L 32.109375 -40.171875 L 44.421875 -40.171875 L 44.421875 0 L 32.109375 0 L 32.109375 -5.6875 C 30.910156 -3.8125 29.242188 -2.296875 27.109375 -1.140625 C 24.972656 0.00390625 22.488281 0.578125 19.65625 0.578125 C 16.394531 0.578125 13.421875 -0.269531 10.734375 -1.96875 C 8.046875 -3.675781 5.921875 -6.101562 4.359375 -9.25 C 2.796875 -12.394531 2.015625 -16.03125 2.015625 -20.15625 Z M 32.109375 -20.09375 C 32.109375 -23.164062 31.253906 -25.585938 29.546875 -27.359375 C 27.847656 -29.140625 25.773438 -30.03125 23.328125 -30.03125 C 20.878906 -30.03125 18.800781 -29.148438 17.09375 -27.390625 C 15.394531 -25.640625 14.546875 -23.226562 14.546875 -20.15625 C 14.546875 -17.082031 15.394531 -14.644531 17.09375 -12.84375 C 18.800781 -11.050781 20.878906 -10.15625 23.328125 -10.15625 C 25.773438 -10.15625 27.847656 -11.039062 29.546875 -12.8125 C 31.253906 -14.59375 32.109375 -17.019531 32.109375 -20.09375 Z M 32.109375 -20.09375 "/></g></g></g><g fill="#ffffff" fill-opacity="1"><g transform="translate(260.369845, 532.805561)"><g><path d="M 26.859375 -10.4375 L 26.859375 0 L 20.59375 0 C 16.125 0 12.640625 -1.085938 10.140625 -3.265625 C 7.648438 -5.453125 6.40625 -9.019531 6.40625 -13.96875 L 6.40625 -29.953125 L 1.515625 -29.953125 L 1.515625 -40.171875 L 6.40625 -40.171875 L 6.40625 -49.96875 L 18.71875 -49.96875 L 18.71875 -40.171875 L 26.78125 -40.171875 L 26.78125 -29.953125 L 18.71875 -29.953125 L 18.71875 -13.828125 C 18.71875 -12.628906 19.003906 -11.765625 19.578125 -11.234375 C 20.160156 -10.703125 21.125 -10.4375 22.46875 -10.4375 Z M 26.859375 -10.4375 "/></g></g></g><g fill="#ffffff" fill-opacity="1"><g transform="translate(289.601831, 532.805561)"><g><path d="M 42.34375 -20.734375 C 42.34375 -19.585938 42.269531 -18.390625 42.125 -17.140625 L 14.25 -17.140625 C 14.445312 -14.640625 15.253906 -12.726562 16.671875 -11.40625 C 18.085938 -10.09375 19.828125 -9.4375 21.890625 -9.4375 C 24.960938 -9.4375 27.097656 -10.726562 28.296875 -13.3125 L 41.40625 -13.3125 C 40.726562 -10.675781 39.515625 -8.300781 37.765625 -6.1875 C 36.015625 -4.082031 33.816406 -2.425781 31.171875 -1.21875 C 28.535156 -0.0195312 25.582031 0.578125 22.3125 0.578125 C 18.382812 0.578125 14.882812 -0.257812 11.8125 -1.9375 C 8.738281 -3.625 6.335938 -6.023438 4.609375 -9.140625 C 2.878906 -12.265625 2.015625 -15.914062 2.015625 -20.09375 C 2.015625 -24.269531 2.863281 -27.914062 4.5625 -31.03125 C 6.269531 -34.15625 8.660156 -36.554688 11.734375 -38.234375 C 14.804688 -39.910156 18.332031 -40.75 22.3125 -40.75 C 26.207031 -40.75 29.664062 -39.929688 32.6875 -38.296875 C 35.707031 -36.671875 38.070312 -34.34375 39.78125 -31.3125 C 41.488281 -28.289062 42.34375 -24.765625 42.34375 -20.734375 Z M 29.734375 -23.96875 C 29.734375 -26.082031 29.015625 -27.765625 27.578125 -29.015625 C 26.140625 -30.265625 24.335938 -30.890625 22.171875 -30.890625 C 20.109375 -30.890625 18.367188 -30.285156 16.953125 -29.078125 C 15.535156 -27.878906 14.660156 -26.175781 14.328125 -23.96875 Z M 29.734375 -23.96875 "/></g></g></g><g fill="#ffffff" fill-opacity="1"><g transform="translate(333.953807, 532.805561)"><g><path d="M 19.734375 -40.75 C 22.554688 -40.75 25.035156 -40.171875 27.171875 -39.015625 C 29.316406 -37.867188 30.960938 -36.359375 32.109375 -34.484375 L 32.109375 -40.171875 L 44.421875 -40.171875 L 44.421875 -0.078125 C 44.421875 3.617188 43.6875 6.96875 42.21875 9.96875 C 40.757812 12.96875 38.53125 15.351562 35.53125 17.125 C 32.53125 18.90625 28.800781 19.796875 24.34375 19.796875 C 18.382812 19.796875 13.554688 18.390625 9.859375 15.578125 C 6.160156 12.773438 4.050781 8.972656 3.53125 4.171875 L 15.703125 4.171875 C 16.078125 5.710938 16.984375 6.925781 18.421875 7.8125 C 19.867188 8.695312 21.648438 9.140625 23.765625 9.140625 C 26.304688 9.140625 28.332031 8.40625 29.84375 6.9375 C 31.351562 5.476562 32.109375 3.140625 32.109375 -0.078125 L 32.109375 -5.765625 C 30.910156 -3.890625 29.253906 -2.363281 27.140625 -1.1875 C 25.023438 -0.0078125 22.554688 0.578125 19.734375 0.578125 C 16.421875 0.578125 13.421875 -0.269531 10.734375 -1.96875 C 8.046875 -3.675781 5.921875 -6.101562 4.359375 -9.25 C 2.796875 -12.394531 2.015625 -16.03125 2.015625 -20.15625 C 2.015625 -24.289062 2.796875 -27.914062 4.359375 -31.03125 C 5.921875 -34.15625 8.046875 -36.554688 10.734375 -38.234375 C 13.421875 -39.910156 16.421875 -40.75 19.734375 -40.75 Z M 32.109375 -20.09375 C 32.109375 -23.164062 31.253906 -25.585938 29.546875 -27.359375 C 27.847656 -29.140625 25.773438 -30.03125 23.328125 -30.03125 C 20.878906 -30.03125 18.800781 -29.148438 17.09375 -27.390625 C 15.394531 -25.640625 14.546875 -23.226562 14.546875 -20.15625 C 14.546875 -17.082031 15.394531 -14.644531 17.09375 -12.84375 C 18.800781 -11.050781 20.878906 -10.15625 23.328125 -10.15625 C 25.773438 -10.15625 27.847656 -11.039062 29.546875 -12.8125 C 31.253906 -14.59375 32.109375 -17.019531 32.109375 -20.09375 Z M 32.109375 -20.09375 "/></g></g></g><g fill="#ffffff" fill-opacity="1"><g transform="translate(382.841797, 532.805561)"><g><path d="M 10.65625 -44.359375 C 8.5 -44.359375 6.734375 -44.992188 5.359375 -46.265625 C 3.992188 -47.535156 3.3125 -49.101562 3.3125 -50.96875 C 3.3125 -52.894531 3.992188 -54.492188 5.359375 -55.765625 C 6.734375 -57.035156 8.5 -57.671875 10.65625 -57.671875 C 12.769531 -57.671875 14.507812 -57.035156 15.875 -55.765625 C 17.238281 -54.492188 17.921875 -52.894531 17.921875 -50.96875 C 17.921875 -49.101562 17.238281 -47.535156 15.875 -46.265625 C 14.507812 -44.992188 12.769531 -44.359375 10.65625 -44.359375 Z M 16.78125 -40.171875 L 16.78125 0 L 4.46875 0 L 4.46875 -40.171875 Z M 16.78125 -40.171875 "/></g></g></g><g fill="#ffffff" fill-opacity="1"><g transform="translate(404.081801, 532.805561)"><g><path d="M 2.015625 -20.09375 C 2.015625 -24.269531 2.863281 -27.914062 4.5625 -31.03125 C 6.269531 -34.15625 8.644531 -36.554688 11.6875 -38.234375 C 14.738281 -39.910156 18.234375 -40.75 22.171875 -40.75 C 27.210938 -40.75 31.425781 -39.425781 34.8125 -36.78125 C 38.195312 -34.144531 40.414062 -30.425781 41.46875 -25.625 L 28.375 -25.625 C 27.269531 -28.695312 25.128906 -30.234375 21.953125 -30.234375 C 19.703125 -30.234375 17.90625 -29.359375 16.5625 -27.609375 C 15.21875 -25.859375 14.546875 -23.351562 14.546875 -20.09375 C 14.546875 -16.820312 15.21875 -14.3125 16.5625 -12.5625 C 17.90625 -10.8125 19.703125 -9.9375 21.953125 -9.9375 C 25.128906 -9.9375 27.269531 -11.472656 28.375 -14.546875 L 41.46875 -14.546875 C 40.414062 -9.835938 38.179688 -6.140625 34.765625 -3.453125 C 31.359375 -0.765625 27.160156 0.578125 22.171875 0.578125 C 18.234375 0.578125 14.738281 -0.257812 11.6875 -1.9375 C 8.644531 -3.625 6.269531 -6.023438 4.5625 -9.140625 C 2.863281 -12.265625 2.015625 -15.914062 2.015625 -20.09375 Z M 2.015625 -20.09375 "/></g></g></g><g fill="#ffffff" fill-opacity="1"><g transform="translate(447.641766, 532.805561)"><g/></g></g><g fill="#ffffff" fill-opacity="1"><g transform="translate(462.905758, 532.805561)"><g><path d="M 30.234375 0 L 19.734375 -19.078125 L 16.78125 -19.078125 L 16.78125 0 L 4.46875 0 L 4.46875 -50.546875 L 25.125 -50.546875 C 29.113281 -50.546875 32.507812 -49.847656 35.3125 -48.453125 C 38.125 -47.066406 40.222656 -45.160156 41.609375 -42.734375 C 43.003906 -40.304688 43.703125 -37.601562 43.703125 -34.625 C 43.703125 -31.269531 42.753906 -28.269531 40.859375 -25.625 C 38.960938 -22.988281 36.164062 -21.117188 32.46875 -20.015625 L 44.140625 0 Z M 16.78125 -27.796875 L 24.40625 -27.796875 C 26.664062 -27.796875 28.359375 -28.347656 29.484375 -29.453125 C 30.609375 -30.554688 31.171875 -32.113281 31.171875 -34.125 C 31.171875 -36.050781 30.609375 -37.5625 29.484375 -38.65625 C 28.359375 -39.757812 26.664062 -40.3125 24.40625 -40.3125 L 16.78125 -40.3125 Z M 16.78125 -27.796875 "/></g></g></g><g fill="#ffffff" fill-opacity="1"><g transform="translate(509.84974, 532.805561)"><g><path d="M 42.34375 -20.734375 C 42.34375 -19.585938 42.269531 -18.390625 42.125 -17.140625 L 14.25 -17.140625 C 14.445312 -14.640625 15.253906 -12.726562 16.671875 -11.40625 C 18.085938 -10.09375 19.828125 -9.4375 21.890625 -9.4375 C 24.960938 -9.4375 27.097656 -10.726562 28.296875 -13.3125 L 41.40625 -13.3125 C 40.726562 -10.675781 39.515625 -8.300781 37.765625 -6.1875 C 36.015625 -4.082031 33.816406 -2.425781 31.171875 -1.21875 C 28.535156 -0.0195312 25.582031 0.578125 22.3125 0.578125 C 18.382812 0.578125 14.882812 -0.257812 11.8125 -1.9375 C 8.738281 -3.625 6.335938 -6.023438 4.609375 -9.140625 C 2.878906 -12.265625 2.015625 -15.914062 2.015625 -20.09375 C 2.015625 -24.269531 2.863281 -27.914062 4.5625 -31.03125 C 6.269531 -34.15625 8.660156 -36.554688 11.734375 -38.234375 C 14.804688 -39.910156 18.332031 -40.75 22.3125 -40.75 C 26.207031 -40.75 29.664062 -39.929688 32.6875 -38.296875 C 35.707031 -36.671875 38.070312 -34.34375 39.78125 -31.3125 C 41.488281 -28.289062 42.34375 -24.765625 42.34375 -20.734375 Z M 29.734375 -23.96875 C 29.734375 -26.082031 29.015625 -27.765625 27.578125 -29.015625 C 26.140625 -30.265625 24.335938 -30.890625 22.171875 -30.890625 C 20.109375 -30.890625 18.367188 -30.285156 16.953125 -29.078125 C 15.535156 -27.878906 14.660156 -26.175781 14.328125 -23.96875 Z M 29.734375 -23.96875 "/></g></g></g><g fill="#ffffff" fill-opacity="1"><g transform="translate(554.201728, 532.805561)"><g><path d="M 20.8125 0.578125 C 17.300781 0.578125 14.175781 -0.0195312 11.4375 -1.21875 C 8.707031 -2.425781 6.550781 -4.070312 4.96875 -6.15625 C 3.382812 -8.238281 2.492188 -10.578125 2.296875 -13.171875 L 14.46875 -13.171875 C 14.613281 -11.785156 15.257812 -10.660156 16.40625 -9.796875 C 17.5625 -8.929688 18.976562 -8.5 20.65625 -8.5 C 22.195312 -8.5 23.382812 -8.796875 24.21875 -9.390625 C 25.0625 -9.992188 25.484375 -10.773438 25.484375 -11.734375 C 25.484375 -12.890625 24.882812 -13.742188 23.6875 -14.296875 C 22.488281 -14.847656 20.546875 -15.457031 17.859375 -16.125 C 14.972656 -16.800781 12.570312 -17.507812 10.65625 -18.25 C 8.738281 -19 7.082031 -20.175781 5.6875 -21.78125 C 4.289062 -23.382812 3.59375 -25.554688 3.59375 -28.296875 C 3.59375 -30.597656 4.226562 -32.695312 5.5 -34.59375 C 6.78125 -36.488281 8.65625 -37.988281 11.125 -39.09375 C 13.59375 -40.195312 16.53125 -40.75 19.9375 -40.75 C 24.976562 -40.75 28.953125 -39.5 31.859375 -37 C 34.765625 -34.507812 36.429688 -31.203125 36.859375 -27.078125 L 25.484375 -27.078125 C 25.296875 -28.460938 24.6875 -29.5625 23.65625 -30.375 C 22.625 -31.195312 21.265625 -31.609375 19.578125 -31.609375 C 18.140625 -31.609375 17.035156 -31.332031 16.265625 -30.78125 C 15.503906 -30.226562 15.125 -29.472656 15.125 -28.515625 C 15.125 -27.359375 15.734375 -26.492188 16.953125 -25.921875 C 18.179688 -25.347656 20.09375 -24.769531 22.6875 -24.1875 C 25.65625 -23.425781 28.078125 -22.671875 29.953125 -21.921875 C 31.828125 -21.179688 33.472656 -19.984375 34.890625 -18.328125 C 36.304688 -16.671875 37.035156 -14.445312 37.078125 -11.65625 C 37.078125 -9.3125 36.414062 -7.210938 35.09375 -5.359375 C 33.78125 -3.515625 31.882812 -2.0625 29.40625 -1 C 26.9375 0.0507812 24.070312 0.578125 20.8125 0.578125 Z M 20.8125 0.578125 "/></g></g></g><g fill="#ffffff" fill-opacity="1"><g transform="translate(594.37772, 532.805561)"><g><path d="M 42.34375 -20.734375 C 42.34375 -19.585938 42.269531 -18.390625 42.125 -17.140625 L 14.25 -17.140625 C 14.445312 -14.640625 15.253906 -12.726562 16.671875 -11.40625 C 18.085938 -10.09375 19.828125 -9.4375 21.890625 -9.4375 C 24.960938 -9.4375 27.097656 -10.726562 28.296875 -13.3125 L 41.40625 -13.3125 C 40.726562 -10.675781 39.515625 -8.300781 37.765625 -6.1875 C 36.015625 -4.082031 33.816406 -2.425781 31.171875 -1.21875 C 28.535156 -0.0195312 25.582031 0.578125 22.3125 0.578125 C 18.382812 0.578125 14.882812 -0.257812 11.8125 -1.9375 C 8.738281 -3.625 6.335938 -6.023438 4.609375 -9.140625 C 2.878906 -12.265625 2.015625 -15.914062 2.015625 -20.09375 C 2.015625 -24.269531 2.863281 -27.914062 4.5625 -31.03125 C 6.269531 -34.15625 8.660156 -36.554688 11.734375 -38.234375 C 14.804688 -39.910156 18.332031 -40.75 22.3125 -40.75 C 26.207031 -40.75 29.664062 -39.929688 32.6875 -38.296875 C 35.707031 -36.671875 38.070312 -34.34375 39.78125 -31.3125 C 41.488281 -28.289062 42.34375 -24.765625 42.34375 -20.734375 Z M 29.734375 -23.96875 C 29.734375 -26.082031 29.015625 -27.765625 27.578125 -29.015625 C 26.140625 -30.265625 24.335938 -30.890625 22.171875 -30.890625 C 20.109375 -30.890625 18.367188 -30.285156 16.953125 -29.078125 C 15.535156 -27.878906 14.660156 -26.175781 14.328125 -23.96875 Z M 29.734375 -23.96875 "/></g></g></g><g fill="#ffffff" fill-opacity="1"><g transform="translate(638.729708, 532.805561)"><g><path d="M 2.015625 -20.15625 C 2.015625 -24.289062 2.796875 -27.914062 4.359375 -31.03125 C 5.921875 -34.15625 8.046875 -36.554688 10.734375 -38.234375 C 13.421875 -39.910156 16.421875 -40.75 19.734375 -40.75 C 22.554688 -40.75 25.035156 -40.171875 27.171875 -39.015625 C 29.316406 -37.867188 30.960938 -36.359375 32.109375 -34.484375 L 32.109375 -40.171875 L 44.421875 -40.171875 L 44.421875 0 L 32.109375 0 L 32.109375 -5.6875 C 30.910156 -3.8125 29.242188 -2.296875 27.109375 -1.140625 C 24.972656 0.00390625 22.488281 0.578125 19.65625 0.578125 C 16.394531 0.578125 13.421875 -0.269531 10.734375 -1.96875 C 8.046875 -3.675781 5.921875 -6.101562 4.359375 -9.25 C 2.796875 -12.394531 2.015625 -16.03125 2.015625 -20.15625 Z M 32.109375 -20.09375 C 32.109375 -23.164062 31.253906 -25.585938 29.546875 -27.359375 C 27.847656 -29.140625 25.773438 -30.03125 23.328125 -30.03125 C 20.878906 -30.03125 18.800781 -29.148438 17.09375 -27.390625 C 15.394531 -25.640625 14.546875 -23.226562 14.546875 -20.15625 C 14.546875 -17.082031 15.394531 -14.644531 17.09375 -12.84375 C 18.800781 -11.050781 20.878906 -10.15625 23.328125 -10.15625 C 25.773438 -10.15625 27.847656 -11.039062 29.546875 -12.8125 C 31.253906 -14.59375 32.109375 -17.019531 32.109375 -20.09375 Z M 32.109375 -20.09375 "/></g></g></g><g fill="#ffffff" fill-opacity="1"><g transform="translate(687.617675, 532.805561)"><g><path d="M 16.78125 -33.484375 C 18.21875 -35.691406 20.015625 -37.429688 22.171875 -38.703125 C 24.335938 -39.972656 26.738281 -40.609375 29.375 -40.609375 L 29.375 -27.578125 L 25.984375 -27.578125 C 22.921875 -27.578125 20.617188 -26.914062 19.078125 -25.59375 C 17.546875 -24.269531 16.78125 -21.953125 16.78125 -18.640625 L 16.78125 0 L 4.46875 0 L 4.46875 -40.171875 L 16.78125 -40.171875 Z M 16.78125 -33.484375 "/></g></g></g><g fill="#ffffff" fill-opacity="1"><g transform="translate(718.433638, 532.805561)"><g><path d="M 2.015625 -20.09375 C 2.015625 -24.269531 2.863281 -27.914062 4.5625 -31.03125 C 6.269531 -34.15625 8.644531 -36.554688 11.6875 -38.234375 C 14.738281 -39.910156 18.234375 -40.75 22.171875 -40.75 C 27.210938 -40.75 31.425781 -39.425781 34.8125 -36.78125 C 38.195312 -34.144531 40.414062 -30.425781 41.46875 -25.625 L 28.375 -25.625 C 27.269531 -28.695312 25.128906 -30.234375 21.953125 -30.234375 C 19.703125 -30.234375 17.90625 -29.359375 16.5625 -27.609375 C 15.21875 -25.859375 14.546875 -23.351562 14.546875 -20.09375 C 14.546875 -16.820312 15.21875 -14.3125 16.5625 -12.5625 C 17.90625 -10.8125 19.703125 -9.9375 21.953125 -9.9375 C 25.128906 -9.9375 27.269531 -11.472656 28.375 -14.546875 L 41.46875 -14.546875 C 40.414062 -9.835938 38.179688 -6.140625 34.765625 -3.453125 C 31.359375 -0.765625 27.160156 0.578125 22.171875 0.578125 C 18.234375 0.578125 14.738281 -0.257812 11.6875 -1.9375 C 8.644531 -3.625 6.269531 -6.023438 4.5625 -9.140625 C 2.863281 -12.265625 2.015625 -15.914062 2.015625 -20.09375 Z M 2.015625 -20.09375 "/></g></g></g><g fill="#ffffff" fill-opacity="1"><g transform="translate(761.993602, 532.805561)"><g><path d="M 29.15625 -40.609375 C 33.769531 -40.609375 37.46875 -39.082031 40.25 -36.03125 C 43.03125 -32.988281 44.421875 -28.800781 44.421875 -23.46875 L 44.421875 0 L 32.1875 0 L 32.1875 -21.8125 C 32.1875 -24.5 31.488281 -26.585938 30.09375 -28.078125 C 28.707031 -29.566406 26.835938 -30.3125 24.484375 -30.3125 C 22.128906 -30.3125 20.253906 -29.566406 18.859375 -28.078125 C 17.472656 -26.585938 16.78125 -24.5 16.78125 -21.8125 L 16.78125 0 L 4.46875 0 L 4.46875 -53.28125 L 16.78125 -53.28125 L 16.78125 -34.78125 C 18.019531 -36.550781 19.71875 -37.960938 21.875 -39.015625 C 24.039062 -40.078125 26.46875 -40.609375 29.15625 -40.609375 Z M 29.15625 -40.609375 "/></g></g></g><g fill="#ffffff" fill-opacity="1"><g transform="translate(810.521584, 532.805561)"><g/></g></g><g fill="#ffffff" fill-opacity="1"><g transform="translate(825.785576, 532.805561)"><g><path d="M 43.125 0 L 38.453125 -4.53125 C 33.796875 -0.976562 28.226562 0.796875 21.75 0.796875 C 17.851562 0.796875 14.460938 0.160156 11.578125 -1.109375 C 8.703125 -2.390625 6.484375 -4.191406 4.921875 -6.515625 C 3.367188 -8.847656 2.59375 -11.570312 2.59375 -14.6875 C 2.59375 -17.851562 3.441406 -20.71875 5.140625 -23.28125 C 6.847656 -25.851562 9.40625 -27.957031 12.8125 -29.59375 C 11.5625 -31.125 10.671875 -32.597656 10.140625 -34.015625 C 9.617188 -35.429688 9.359375 -36.976562 9.359375 -38.65625 C 9.359375 -41.0625 9.984375 -43.25 11.234375 -45.21875 C 12.484375 -47.1875 14.296875 -48.734375 16.671875 -49.859375 C 19.046875 -50.984375 21.863281 -51.546875 25.125 -51.546875 C 28.4375 -51.546875 31.242188 -50.945312 33.546875 -49.75 C 35.859375 -48.550781 37.585938 -46.941406 38.734375 -44.921875 C 39.890625 -42.910156 40.414062 -40.703125 40.3125 -38.296875 L 28.734375 -38.296875 C 28.773438 -39.597656 28.445312 -40.597656 27.75 -41.296875 C 27.0625 -41.992188 26.140625 -42.34375 24.984375 -42.34375 C 23.828125 -42.34375 22.863281 -42.003906 22.09375 -41.328125 C 21.332031 -40.648438 20.953125 -39.785156 20.953125 -38.734375 C 20.953125 -37.722656 21.273438 -36.664062 21.921875 -35.5625 C 22.566406 -34.457031 23.585938 -33.1875 24.984375 -31.75 L 37.296875 -19.734375 C 37.390625 -19.972656 37.519531 -20.257812 37.6875 -20.59375 C 37.851562 -20.925781 38.035156 -21.3125 38.234375 -21.75 L 40.890625 -26.28125 L 53.203125 -26.28125 L 49.75 -20.015625 C 48.457031 -17.179688 46.96875 -14.492188 45.28125 -11.953125 L 57.453125 0 Z M 22.3125 -9.140625 C 25.53125 -9.140625 28.390625 -10.050781 30.890625 -11.875 L 19.65625 -22.75 C 16.195312 -20.976562 14.46875 -18.578125 14.46875 -15.546875 C 14.46875 -13.722656 15.175781 -12.195312 16.59375 -10.96875 C 18.007812 -9.75 19.914062 -9.140625 22.3125 -9.140625 Z M 22.3125 -9.140625 "/></g></g></g><g fill="#ffffff" fill-opacity="1"><g transform="translate(107.153914, 633.305556)"><g><path d="M 2.375 -25.34375 C 2.375 -30.332031 3.453125 -34.78125 5.609375 -38.6875 C 7.773438 -42.601562 10.789062 -45.65625 14.65625 -47.84375 C 18.519531 -50.03125 22.898438 -51.125 27.796875 -51.125 C 33.796875 -51.125 38.929688 -49.535156 43.203125 -46.359375 C 47.472656 -43.191406 50.328125 -38.875 51.765625 -33.40625 L 38.234375 -33.40625 C 37.222656 -35.519531 35.789062 -37.128906 33.9375 -38.234375 C 32.09375 -39.335938 29.992188 -39.890625 27.640625 -39.890625 C 23.847656 -39.890625 20.773438 -38.566406 18.421875 -35.921875 C 16.078125 -33.285156 14.90625 -29.757812 14.90625 -25.34375 C 14.90625 -20.925781 16.078125 -17.394531 18.421875 -14.75 C 20.773438 -12.113281 23.847656 -10.796875 27.640625 -10.796875 C 29.992188 -10.796875 32.09375 -11.347656 33.9375 -12.453125 C 35.789062 -13.554688 37.222656 -15.164062 38.234375 -17.28125 L 51.765625 -17.28125 C 50.328125 -11.8125 47.472656 -7.503906 43.203125 -4.359375 C 38.929688 -1.210938 33.796875 0.359375 27.796875 0.359375 C 22.898438 0.359375 18.519531 -0.726562 14.65625 -2.90625 C 10.789062 -5.09375 7.773438 -8.128906 5.609375 -12.015625 C 3.453125 -15.910156 2.375 -20.351562 2.375 -25.34375 Z M 2.375 -25.34375 "/></g></g></g><g fill="#ffffff" fill-opacity="1"><g transform="translate(162.017883, 633.305556)"><g><path d="M 22.75 0.578125 C 18.8125 0.578125 15.269531 -0.257812 12.125 -1.9375 C 8.988281 -3.625 6.519531 -6.023438 4.71875 -9.140625 C 2.914062 -12.265625 2.015625 -15.914062 2.015625 -20.09375 C 2.015625 -24.21875 2.925781 -27.851562 4.75 -31 C 6.570312 -34.144531 9.066406 -36.554688 12.234375 -38.234375 C 15.398438 -39.910156 18.953125 -40.75 22.890625 -40.75 C 26.828125 -40.75 30.378906 -39.910156 33.546875 -38.234375 C 36.710938 -36.554688 39.207031 -34.144531 41.03125 -31 C 42.863281 -27.851562 43.78125 -24.21875 43.78125 -20.09375 C 43.78125 -15.957031 42.851562 -12.316406 41 -9.171875 C 39.15625 -6.035156 36.632812 -3.625 33.4375 -1.9375 C 30.25 -0.257812 26.6875 0.578125 22.75 0.578125 Z M 22.75 -10.078125 C 25.101562 -10.078125 27.109375 -10.941406 28.765625 -12.671875 C 30.421875 -14.398438 31.25 -16.875 31.25 -20.09375 C 31.25 -23.300781 30.441406 -25.769531 28.828125 -27.5 C 27.222656 -29.226562 25.242188 -30.09375 22.890625 -30.09375 C 20.492188 -30.09375 18.503906 -29.238281 16.921875 -27.53125 C 15.335938 -25.832031 14.546875 -23.351562 14.546875 -20.09375 C 14.546875 -16.875 15.320312 -14.398438 16.875 -12.671875 C 18.4375 -10.941406 20.394531 -10.078125 22.75 -10.078125 Z M 22.75 -10.078125 "/></g></g></g><g fill="#ffffff" fill-opacity="1"><g transform="translate(207.881864, 633.305556)"><g><path d="M 28.9375 -40.609375 C 33.644531 -40.609375 37.398438 -39.082031 40.203125 -36.03125 C 43.015625 -32.988281 44.421875 -28.800781 44.421875 -23.46875 L 44.421875 0 L 32.1875 0 L 32.1875 -21.8125 C 32.1875 -24.5 31.488281 -26.585938 30.09375 -28.078125 C 28.707031 -29.566406 26.835938 -30.3125 24.484375 -30.3125 C 22.128906 -30.3125 20.253906 -29.566406 18.859375 -28.078125 C 17.472656 -26.585938 16.78125 -24.5 16.78125 -21.8125 L 16.78125 0 L 4.46875 0 L 4.46875 -40.171875 L 16.78125 -40.171875 L 16.78125 -34.84375 C 18.019531 -36.625 19.695312 -38.03125 21.8125 -39.0625 C 23.925781 -40.09375 26.300781 -40.609375 28.9375 -40.609375 Z M 28.9375 -40.609375 "/></g></g></g><g fill="#ffffff" fill-opacity="1"><g transform="translate(256.409835, 633.305556)"><g><path d="M 20.8125 0.578125 C 17.300781 0.578125 14.175781 -0.0195312 11.4375 -1.21875 C 8.707031 -2.425781 6.550781 -4.070312 4.96875 -6.15625 C 3.382812 -8.238281 2.492188 -10.578125 2.296875 -13.171875 L 14.46875 -13.171875 C 14.613281 -11.785156 15.257812 -10.660156 16.40625 -9.796875 C 17.5625 -8.929688 18.976562 -8.5 20.65625 -8.5 C 22.195312 -8.5 23.382812 -8.796875 24.21875 -9.390625 C 25.0625 -9.992188 25.484375 -10.773438 25.484375 -11.734375 C 25.484375 -12.890625 24.882812 -13.742188 23.6875 -14.296875 C 22.488281 -14.847656 20.546875 -15.457031 17.859375 -16.125 C 14.972656 -16.800781 12.570312 -17.507812 10.65625 -18.25 C 8.738281 -19 7.082031 -20.175781 5.6875 -21.78125 C 4.289062 -23.382812 3.59375 -25.554688 3.59375 -28.296875 C 3.59375 -30.597656 4.226562 -32.695312 5.5 -34.59375 C 6.78125 -36.488281 8.65625 -37.988281 11.125 -39.09375 C 13.59375 -40.195312 16.53125 -40.75 19.9375 -40.75 C 24.976562 -40.75 28.953125 -39.5 31.859375 -37 C 34.765625 -34.507812 36.429688 -31.203125 36.859375 -27.078125 L 25.484375 -27.078125 C 25.296875 -28.460938 24.6875 -29.5625 23.65625 -30.375 C 22.625 -31.195312 21.265625 -31.609375 19.578125 -31.609375 C 18.140625 -31.609375 17.035156 -31.332031 16.265625 -30.78125 C 15.503906 -30.226562 15.125 -29.472656 15.125 -28.515625 C 15.125 -27.359375 15.734375 -26.492188 16.953125 -25.921875 C 18.179688 -25.347656 20.09375 -24.769531 22.6875 -24.1875 C 25.65625 -23.425781 28.078125 -22.671875 29.953125 -21.921875 C 31.828125 -21.179688 33.472656 -19.984375 34.890625 -18.328125 C 36.304688 -16.671875 37.035156 -14.445312 37.078125 -11.65625 C 37.078125 -9.3125 36.414062 -7.210938 35.09375 -5.359375 C 33.78125 -3.515625 31.882812 -2.0625 29.40625 -1 C 26.9375 0.0507812 24.070312 0.578125 20.8125 0.578125 Z M 20.8125 0.578125 "/></g></g></g><g fill="#ffffff" fill-opacity="1"><g transform="translate(296.585816, 633.305556)"><g><path d="M 44.140625 -40.171875 L 44.140625 0 L 31.828125 0 L 31.828125 -5.46875 C 30.578125 -3.695312 28.882812 -2.269531 26.75 -1.1875 C 24.613281 -0.101562 22.25 0.4375 19.65625 0.4375 C 16.582031 0.4375 13.867188 -0.242188 11.515625 -1.609375 C 9.160156 -2.984375 7.335938 -4.96875 6.046875 -7.5625 C 4.753906 -10.15625 4.109375 -13.203125 4.109375 -16.703125 L 4.109375 -40.171875 L 16.34375 -40.171875 L 16.34375 -18.359375 C 16.34375 -15.671875 17.035156 -13.582031 18.421875 -12.09375 C 19.816406 -10.601562 21.691406 -9.859375 24.046875 -9.859375 C 26.441406 -9.859375 28.335938 -10.601562 29.734375 -12.09375 C 31.128906 -13.582031 31.828125 -15.671875 31.828125 -18.359375 L 31.828125 -40.171875 Z M 44.140625 -40.171875 "/></g></g></g><g fill="#ffffff" fill-opacity="1"><g transform="translate(345.113787, 633.305556)"><g><path d="M 16.78125 -53.28125 L 16.78125 0 L 4.46875 0 L 4.46875 -53.28125 Z M 16.78125 -53.28125 "/></g></g></g><g fill="#ffffff" fill-opacity="1"><g transform="translate(366.353791, 633.305556)"><g><path d="M 26.859375 -10.4375 L 26.859375 0 L 20.59375 0 C 16.125 0 12.640625 -1.085938 10.140625 -3.265625 C 7.648438 -5.453125 6.40625 -9.019531 6.40625 -13.96875 L 6.40625 -29.953125 L 1.515625 -29.953125 L 1.515625 -40.171875 L 6.40625 -40.171875 L 6.40625 -49.96875 L 18.71875 -49.96875 L 18.71875 -40.171875 L 26.78125 -40.171875 L 26.78125 -29.953125 L 18.71875 -29.953125 L 18.71875 -13.828125 C 18.71875 -12.628906 19.003906 -11.765625 19.578125 -11.234375 C 20.160156 -10.703125 21.125 -10.4375 22.46875 -10.4375 Z M 26.859375 -10.4375 "/></g></g></g><g fill="#ffffff" fill-opacity="1"><g transform="translate(395.585777, 633.305556)"><g><path d="M 10.65625 -44.359375 C 8.5 -44.359375 6.734375 -44.992188 5.359375 -46.265625 C 3.992188 -47.535156 3.3125 -49.101562 3.3125 -50.96875 C 3.3125 -52.894531 3.992188 -54.492188 5.359375 -55.765625 C 6.734375 -57.035156 8.5 -57.671875 10.65625 -57.671875 C 12.769531 -57.671875 14.507812 -57.035156 15.875 -55.765625 C 17.238281 -54.492188 17.921875 -52.894531 17.921875 -50.96875 C 17.921875 -49.101562 17.238281 -47.535156 15.875 -46.265625 C 14.507812 -44.992188 12.769531 -44.359375 10.65625 -44.359375 Z M 16.78125 -40.171875 L 16.78125 0 L 4.46875 0 L 4.46875 -40.171875 Z M 16.78125 -40.171875 "/></g></g></g><g fill="#ffffff" fill-opacity="1"><g transform="translate(416.825759, 633.305556)"><g><path d="M 28.9375 -40.609375 C 33.644531 -40.609375 37.398438 -39.082031 40.203125 -36.03125 C 43.015625 -32.988281 44.421875 -28.800781 44.421875 -23.46875 L 44.421875 0 L 32.1875 0 L 32.1875 -21.8125 C 32.1875 -24.5 31.488281 -26.585938 30.09375 -28.078125 C 28.707031 -29.566406 26.835938 -30.3125 24.484375 -30.3125 C 22.128906 -30.3125 20.253906 -29.566406 18.859375 -28.078125 C 17.472656 -26.585938 16.78125 -24.5 16.78125 -21.8125 L 16.78125 0 L 4.46875 0 L 4.46875 -40.171875 L 16.78125 -40.171875 L 16.78125 -34.84375 C 18.019531 -36.625 19.695312 -38.03125 21.8125 -39.0625 C 23.925781 -40.09375 26.300781 -40.609375 28.9375 -40.609375 Z M 28.9375 -40.609375 "/></g></g></g><g fill="#ffffff" fill-opacity="1"><g transform="translate(465.35374, 633.305556)"><g><path d="M 19.734375 -40.75 C 22.554688 -40.75 25.035156 -40.171875 27.171875 -39.015625 C 29.316406 -37.867188 30.960938 -36.359375 32.109375 -34.484375 L 32.109375 -40.171875 L 44.421875 -40.171875 L 44.421875 -0.078125 C 44.421875 3.617188 43.6875 6.96875 42.21875 9.96875 C 40.757812 12.96875 38.53125 15.351562 35.53125 17.125 C 32.53125 18.90625 28.800781 19.796875 24.34375 19.796875 C 18.382812 19.796875 13.554688 18.390625 9.859375 15.578125 C 6.160156 12.773438 4.050781 8.972656 3.53125 4.171875 L 15.703125 4.171875 C 16.078125 5.710938 16.984375 6.925781 18.421875 7.8125 C 19.867188 8.695312 21.648438 9.140625 23.765625 9.140625 C 26.304688 9.140625 28.332031 8.40625 29.84375 6.9375 C 31.351562 5.476562 32.109375 3.140625 32.109375 -0.078125 L 32.109375 -5.765625 C 30.910156 -3.890625 29.253906 -2.363281 27.140625 -1.1875 C 25.023438 -0.0078125 22.554688 0.578125 19.734375 0.578125 C 16.421875 0.578125 13.421875 -0.269531 10.734375 -1.96875 C 8.046875 -3.675781 5.921875 -6.101562 4.359375 -9.25 C 2.796875 -12.394531 2.015625 -16.03125 2.015625 -20.15625 C 2.015625 -24.289062 2.796875 -27.914062 4.359375 -31.03125 C 5.921875 -34.15625 8.046875 -36.554688 10.734375 -38.234375 C 13.421875 -39.910156 16.421875 -40.75 19.734375 -40.75 Z M 32.109375 -20.09375 C 32.109375 -23.164062 31.253906 -25.585938 29.546875 -27.359375 C 27.847656 -29.140625 25.773438 -30.03125 23.328125 -30.03125 C 20.878906 -30.03125 18.800781 -29.148438 17.09375 -27.390625 C 15.394531 -25.640625 14.546875 -23.226562 14.546875 -20.15625 C 14.546875 -17.082031 15.394531 -14.644531 17.09375 -12.84375 C 18.800781 -11.050781 20.878906 -10.15625 23.328125 -10.15625 C 25.773438 -10.15625 27.847656 -11.039062 29.546875 -12.8125 C 31.253906 -14.59375 32.109375 -17.019531 32.109375 -20.09375 Z M 32.109375 -20.09375 "/></g></g></g><g fill="#ffffff" fill-opacity="1"><g transform="translate(514.241708, 633.305556)"><g/></g></g><g fill="#ffffff" fill-opacity="1"><g transform="translate(529.5057, 633.305556)"><g><path d="M 10.65625 -44.359375 C 8.5 -44.359375 6.734375 -44.992188 5.359375 -46.265625 C 3.992188 -47.535156 3.3125 -49.101562 3.3125 -50.96875 C 3.3125 -52.894531 3.992188 -54.492188 5.359375 -55.765625 C 6.734375 -57.035156 8.5 -57.671875 10.65625 -57.671875 C 12.769531 -57.671875 14.507812 -57.035156 15.875 -55.765625 C 17.238281 -54.492188 17.921875 -52.894531 17.921875 -50.96875 C 17.921875 -49.101562 17.238281 -47.535156 15.875 -46.265625 C 14.507812 -44.992188 12.769531 -44.359375 10.65625 -44.359375 Z M 16.78125 -40.171875 L 16.78125 0 L 4.46875 0 L 4.46875 -40.171875 Z M 16.78125 -40.171875 "/></g></g></g><g fill="#ffffff" fill-opacity="1"><g transform="translate(550.745704, 633.305556)"><g><path d="M 28.9375 -40.609375 C 33.644531 -40.609375 37.398438 -39.082031 40.203125 -36.03125 C 43.015625 -32.988281 44.421875 -28.800781 44.421875 -23.46875 L 44.421875 0 L 32.1875 0 L 32.1875 -21.8125 C 32.1875 -24.5 31.488281 -26.585938 30.09375 -28.078125 C 28.707031 -29.566406 26.835938 -30.3125 24.484375 -30.3125 C 22.128906 -30.3125 20.253906 -29.566406 18.859375 -28.078125 C 17.472656 -26.585938 16.78125 -24.5 16.78125 -21.8125 L 16.78125 0 L 4.46875 0 L 4.46875 -40.171875 L 16.78125 -40.171875 L 16.78125 -34.84375 C 18.019531 -36.625 19.695312 -38.03125 21.8125 -39.0625 C 23.925781 -40.09375 26.300781 -40.609375 28.9375 -40.609375 Z M 28.9375 -40.609375 "/></g></g></g><g fill="#ffffff" fill-opacity="1"><g transform="translate(599.273686, 633.305556)"><g/></g></g><g fill="#ffffff" fill-opacity="1"><g transform="translate(614.537677, 633.305556)"><g><path d="M 35.921875 -8.921875 L 17.0625 -8.921875 L 14.046875 0 L 1.15625 0 L 19.4375 -50.546875 L 33.703125 -50.546875 L 51.984375 0 L 38.953125 0 Z M 32.765625 -18.4375 L 26.5 -36.9375 L 20.296875 -18.4375 Z M 32.765625 -18.4375 "/></g></g></g><g fill="#ffffff" fill-opacity="1"><g transform="translate(667.601639, 633.305556)"><g><path d="M 16.78125 -50.546875 L 16.78125 0 L 4.46875 0 L 4.46875 -50.546875 Z M 16.78125 -50.546875 "/></g></g></g><g fill="#ffffff" fill-opacity="1"><g transform="translate(688.841644, 633.305556)"><g/></g></g><g fill="#ffffff" fill-opacity="1"><g transform="translate(704.105635, 633.305556)"><g><path d="M 2.015625 -20.15625 C 2.015625 -24.289062 2.796875 -27.914062 4.359375 -31.03125 C 5.921875 -34.15625 8.046875 -36.554688 10.734375 -38.234375 C 13.421875 -39.910156 16.421875 -40.75 19.734375 -40.75 C 22.554688 -40.75 25.035156 -40.171875 27.171875 -39.015625 C 29.316406 -37.867188 30.960938 -36.359375 32.109375 -34.484375 L 32.109375 -40.171875 L 44.421875 -40.171875 L 44.421875 0 L 32.109375 0 L 32.109375 -5.6875 C 30.910156 -3.8125 29.242188 -2.296875 27.109375 -1.140625 C 24.972656 0.00390625 22.488281 0.578125 19.65625 0.578125 C 16.394531 0.578125 13.421875 -0.269531 10.734375 -1.96875 C 8.046875 -3.675781 5.921875 -6.101562 4.359375 -9.25 C 2.796875 -12.394531 2.015625 -16.03125 2.015625 -20.15625 Z M 32.109375 -20.09375 C 32.109375 -23.164062 31.253906 -25.585938 29.546875 -27.359375 C 27.847656 -29.140625 25.773438 -30.03125 23.328125 -30.03125 C 20.878906 -30.03125 18.800781 -29.148438 17.09375 -27.390625 C 15.394531 -25.640625 14.546875 -23.226562 14.546875 -20.15625 C 14.546875 -17.082031 15.394531 -14.644531 17.09375 -12.84375 C 18.800781 -11.050781 20.878906 -10.15625 23.328125 -10.15625 C 25.773438 -10.15625 27.847656 -11.039062 29.546875 -12.8125 C 31.253906 -14.59375 32.109375 -17.019531 32.109375 -20.09375 Z M 32.109375 -20.09375 "/></g></g></g><g fill="#ffffff" fill-opacity="1"><g transform="translate(752.993603, 633.305556)"><g><path d="M 28.9375 -40.609375 C 33.644531 -40.609375 37.398438 -39.082031 40.203125 -36.03125 C 43.015625 -32.988281 44.421875 -28.800781 44.421875 -23.46875 L 44.421875 0 L 32.1875 0 L 32.1875 -21.8125 C 32.1875 -24.5 31.488281 -26.585938 30.09375 -28.078125 C 28.707031 -29.566406 26.835938 -30.3125 24.484375 -30.3125 C 22.128906 -30.3125 20.253906 -29.566406 18.859375 -28.078125 C 17.472656 -26.585938 16.78125 -24.5 16.78125 -21.8125 L 16.78125 0 L 4.46875 0 L 4.46875 -40.171875 L 16.78125 -40.171875 L 16.78125 -34.84375 C 18.019531 -36.625 19.695312 -38.03125 21.8125 -39.0625 C 23.925781 -40.09375 26.300781 -40.609375 28.9375 -40.609375 Z M 28.9375 -40.609375 "/></g></g></g><g fill="#ffffff" fill-opacity="1"><g transform="translate(801.521585, 633.305556)"><g><path d="M 2.015625 -20.15625 C 2.015625 -24.289062 2.796875 -27.914062 4.359375 -31.03125 C 5.921875 -34.15625 8.046875 -36.554688 10.734375 -38.234375 C 13.421875 -39.910156 16.421875 -40.75 19.734375 -40.75 C 22.367188 -40.75 24.773438 -40.195312 26.953125 -39.09375 C 29.140625 -37.988281 30.859375 -36.5 32.109375 -34.625 L 32.109375 -53.28125 L 44.421875 -53.28125 L 44.421875 0 L 32.109375 0 L 32.109375 -5.765625 C 30.960938 -3.835938 29.316406 -2.296875 27.171875 -1.140625 C 25.035156 0.00390625 22.554688 0.578125 19.734375 0.578125 C 16.421875 0.578125 13.421875 -0.269531 10.734375 -1.96875 C 8.046875 -3.675781 5.921875 -6.101562 4.359375 -9.25 C 2.796875 -12.394531 2.015625 -16.03125 2.015625 -20.15625 Z M 32.109375 -20.09375 C 32.109375 -23.164062 31.253906 -25.585938 29.546875 -27.359375 C 27.847656 -29.140625 25.773438 -30.03125 23.328125 -30.03125 C 20.878906 -30.03125 18.800781 -29.148438 17.09375 -27.390625 C 15.394531 -25.640625 14.546875 -23.226562 14.546875 -20.15625 C 14.546875 -17.082031 15.394531 -14.644531 17.09375 -12.84375 C 18.800781 -11.050781 20.878906 -10.15625 23.328125 -10.15625 C 25.773438 -10.15625 27.847656 -11.039062 29.546875 -12.8125 C 31.253906 -14.59375 32.109375 -17.019531 32.109375 -20.09375 Z M 32.109375 -20.09375 "/></g></g></g><g fill="#ffffff" fill-opacity="1"><g transform="translate(850.409552, 633.305556)"><g/></g></g><g fill="#ffffff" fill-opacity="1"><g transform="translate(865.673544, 633.305556)"><g><path d="M 35.0625 -25.921875 C 37.988281 -25.296875 40.335938 -23.84375 42.109375 -21.5625 C 43.890625 -19.28125 44.78125 -16.675781 44.78125 -13.75 C 44.78125 -9.53125 43.300781 -6.179688 40.34375 -3.703125 C 37.394531 -1.234375 33.285156 0 28.015625 0 L 4.46875 0 L 4.46875 -50.546875 L 27.21875 -50.546875 C 32.351562 -50.546875 36.367188 -49.367188 39.265625 -47.015625 C 42.171875 -44.660156 43.625 -41.46875 43.625 -37.4375 C 43.625 -34.457031 42.84375 -31.984375 41.28125 -30.015625 C 39.726562 -28.054688 37.65625 -26.691406 35.0625 -25.921875 Z M 16.78125 -30.09375 L 24.84375 -30.09375 C 26.851562 -30.09375 28.398438 -30.535156 29.484375 -31.421875 C 30.566406 -32.316406 31.109375 -33.628906 31.109375 -35.359375 C 31.109375 -37.078125 30.566406 -38.394531 29.484375 -39.3125 C 28.398438 -40.226562 26.851562 -40.6875 24.84375 -40.6875 L 16.78125 -40.6875 Z M 25.84375 -9.9375 C 27.90625 -9.9375 29.5 -10.40625 30.625 -11.34375 C 31.757812 -12.28125 32.328125 -13.632812 32.328125 -15.40625 C 32.328125 -17.1875 31.738281 -18.578125 30.5625 -19.578125 C 29.382812 -20.585938 27.765625 -21.09375 25.703125 -21.09375 L 16.78125 -21.09375 L 16.78125 -9.9375 Z M 25.84375 -9.9375 "/></g></g></g><g fill="#ffffff" fill-opacity="1"><g transform="translate(913.121524, 633.305556)"><g><path d="M 16.78125 -53.28125 L 16.78125 0 L 4.46875 0 L 4.46875 -53.28125 Z M 16.78125 -53.28125 "/></g></g></g><g fill="#ffffff" fill-opacity="1"><g transform="translate(934.361483, 633.305556)"><g><path d="M 22.75 0.578125 C 18.8125 0.578125 15.269531 -0.257812 12.125 -1.9375 C 8.988281 -3.625 6.519531 -6.023438 4.71875 -9.140625 C 2.914062 -12.265625 2.015625 -15.914062 2.015625 -20.09375 C 2.015625 -24.21875 2.925781 -27.851562 4.75 -31 C 6.570312 -34.144531 9.066406 -36.554688 12.234375 -38.234375 C 15.398438 -39.910156 18.953125 -40.75 22.890625 -40.75 C 26.828125 -40.75 30.378906 -39.910156 33.546875 -38.234375 C 36.710938 -36.554688 39.207031 -34.144531 41.03125 -31 C 42.863281 -27.851562 43.78125 -24.21875 43.78125 -20.09375 C 43.78125 -15.957031 42.851562 -12.316406 41 -9.171875 C 39.15625 -6.035156 36.632812 -3.625 33.4375 -1.9375 C 30.25 -0.257812 26.6875 0.578125 22.75 0.578125 Z M 22.75 -10.078125 C 25.101562 -10.078125 27.109375 -10.941406 28.765625 -12.671875 C 30.421875 -14.398438 31.25 -16.875 31.25 -20.09375 C 31.25 -23.300781 30.441406 -25.769531 28.828125 -27.5 C 27.222656 -29.226562 25.242188 -30.09375 22.890625 -30.09375 C 20.492188 -30.09375 18.503906 -29.238281 16.921875 -27.53125 C 15.335938 -25.832031 14.546875 -23.351562 14.546875 -20.09375 C 14.546875 -16.875 15.320312 -14.398438 16.875 -12.671875 C 18.4375 -10.941406 20.394531 -10.078125 22.75 -10.078125 Z M 22.75 -10.078125 "/></g></g></g><g fill="#ffffff" fill-opacity="1"><g transform="translate(980.225464, 633.305556)"><g><path d="M 2.015625 -20.09375 C 2.015625 -24.269531 2.863281 -27.914062 4.5625 -31.03125 C 6.269531 -34.15625 8.644531 -36.554688 11.6875 -38.234375 C 14.738281 -39.910156 18.234375 -40.75 22.171875 -40.75 C 27.210938 -40.75 31.425781 -39.425781 34.8125 -36.78125 C 38.195312 -34.144531 40.414062 -30.425781 41.46875 -25.625 L 28.375 -25.625 C 27.269531 -28.695312 25.128906 -30.234375 21.953125 -30.234375 C 19.703125 -30.234375 17.90625 -29.359375 16.5625 -27.609375 C 15.21875 -25.859375 14.546875 -23.351562 14.546875 -20.09375 C 14.546875 -16.820312 15.21875 -14.3125 16.5625 -12.5625 C 17.90625 -10.8125 19.703125 -9.9375 21.953125 -9.9375 C 25.128906 -9.9375 27.269531 -11.472656 28.375 -14.546875 L 41.46875 -14.546875 C 40.414062 -9.835938 38.179688 -6.140625 34.765625 -3.453125 C 31.359375 -0.765625 27.160156 0.578125 22.171875 0.578125 C 18.234375 0.578125 14.738281 -0.257812 11.6875 -1.9375 C 8.644531 -3.625 6.269531 -6.023438 4.5625 -9.140625 C 2.863281 -12.265625 2.015625 -15.914062 2.015625 -20.09375 Z M 2.015625 -20.09375 "/></g></g></g><g fill="#ffffff" fill-opacity="1"><g transform="translate(1023.785429, 633.305556)"><g><path d="M 29.015625 0 L 16.78125 -16.84375 L 16.78125 0 L 4.46875 0 L 4.46875 -53.28125 L 16.78125 -53.28125 L 16.78125 -23.828125 L 28.9375 -40.171875 L 44.140625 -40.171875 L 27.4375 -20.015625 L 44.28125 0 Z M 29.015625 0 "/></g></g></g><g fill="#ffffff" fill-opacity="1"><g transform="translate(1068.281429, 633.305556)"><g><path d="M 2.015625 -20.09375 C 2.015625 -24.269531 2.863281 -27.914062 4.5625 -31.03125 C 6.269531 -34.15625 8.644531 -36.554688 11.6875 -38.234375 C 14.738281 -39.910156 18.234375 -40.75 22.171875 -40.75 C 27.210938 -40.75 31.425781 -39.425781 34.8125 -36.78125 C 38.195312 -34.144531 40.414062 -30.425781 41.46875 -25.625 L 28.375 -25.625 C 27.269531 -28.695312 25.128906 -30.234375 21.953125 -30.234375 C 19.703125 -30.234375 17.90625 -29.359375 16.5625 -27.609375 C 15.21875 -25.859375 14.546875 -23.351562 14.546875 -20.09375 C 14.546875 -16.820312 15.21875 -14.3125 16.5625 -12.5625 C 17.90625 -10.8125 19.703125 -9.9375 21.953125 -9.9375 C 25.128906 -9.9375 27.269531 -11.472656 28.375 -14.546875 L 41.46875 -14.546875 C 40.414062 -9.835938 38.179688 -6.140625 34.765625 -3.453125 C 31.359375 -0.765625 27.160156 0.578125 22.171875 0.578125 C 18.234375 0.578125 14.738281 -0.257812 11.6875 -1.9375 C 8.644531 -3.625 6.269531 -6.023438 4.5625 -9.140625 C 2.863281 -12.265625 2.015625 -15.914062 2.015625 -20.09375 Z M 2.015625 -20.09375 "/></g></g></g><g fill="#ffffff" fill-opacity="1"><g transform="translate(1111.841394, 633.305556)"><g><path d="M 29.15625 -40.609375 C 33.769531 -40.609375 37.46875 -39.082031 40.25 -36.03125 C 43.03125 -32.988281 44.421875 -28.800781 44.421875 -23.46875 L 44.421875 0 L 32.1875 0 L 32.1875 -21.8125 C 32.1875 -24.5 31.488281 -26.585938 30.09375 -28.078125 C 28.707031 -29.566406 26.835938 -30.3125 24.484375 -30.3125 C 22.128906 -30.3125 20.253906 -29.566406 18.859375 -28.078125 C 17.472656 -26.585938 16.78125 -24.5 16.78125 -21.8125 L 16.78125 0 L 4.46875 0 L 4.46875 -53.28125 L 16.78125 -53.28125 L 16.78125 -34.78125 C 18.019531 -36.550781 19.71875 -37.960938 21.875 -39.015625 C 24.039062 -40.078125 26.46875 -40.609375 29.15625 -40.609375 Z M 29.15625 -40.609375 "/></g></g></g><g fill="#ffffff" fill-opacity="1"><g transform="translate(1160.369375, 633.305556)"><g><path d="M 2.015625 -20.15625 C 2.015625 -24.289062 2.796875 -27.914062 4.359375 -31.03125 C 5.921875 -34.15625 8.046875 -36.554688 10.734375 -38.234375 C 13.421875 -39.910156 16.421875 -40.75 19.734375 -40.75 C 22.554688 -40.75 25.035156 -40.171875 27.171875 -39.015625 C 29.316406 -37.867188 30.960938 -36.359375 32.109375 -34.484375 L 32.109375 -40.171875 L 44.421875 -40.171875 L 44.421875 0 L 32.109375 0 L 32.109375 -5.6875 C 30.910156 -3.8125 29.242188 -2.296875 27.109375 -1.140625 C 24.972656 0.00390625 22.488281 0.578125 19.65625 0.578125 C 16.394531 0.578125 13.421875 -0.269531 10.734375 -1.96875 C 8.046875 -3.675781 5.921875 -6.101562 4.359375 -9.25 C 2.796875 -12.394531 2.015625 -16.03125 2.015625 -20.15625 Z M 32.109375 -20.09375 C 32.109375 -23.164062 31.253906 -25.585938 29.546875 -27.359375 C 27.847656 -29.140625 25.773438 -30.03125 23.328125 -30.03125 C 20.878906 -30.03125 18.800781 -29.148438 17.09375 -27.390625 C 15.394531 -25.640625 14.546875 -23.226562 14.546875 -20.15625 C 14.546875 -17.082031 15.394531 -14.644531 17.09375 -12.84375 C 18.800781 -11.050781 20.878906 -10.15625 23.328125 -10.15625 C 25.773438 -10.15625 27.847656 -11.039062 29.546875 -12.8125 C 31.253906 -14.59375 32.109375 -17.019531 32.109375 -20.09375 Z M 32.109375 -20.09375 "/></g></g></g><g fill="#ffffff" fill-opacity="1"><g transform="translate(1209.257343, 633.305556)"><g><path d="M 10.65625 -44.359375 C 8.5 -44.359375 6.734375 -44.992188 5.359375 -46.265625 C 3.992188 -47.535156 3.3125 -49.101562 3.3125 -50.96875 C 3.3125 -52.894531 3.992188 -54.492188 5.359375 -55.765625 C 6.734375 -57.035156 8.5 -57.671875 10.65625 -57.671875 C 12.769531 -57.671875 14.507812 -57.035156 15.875 -55.765625 C 17.238281 -54.492188 17.921875 -52.894531 17.921875 -50.96875 C 17.921875 -49.101562 17.238281 -47.535156 15.875 -46.265625 C 14.507812 -44.992188 12.769531 -44.359375 10.65625 -44.359375 Z M 16.78125 -40.171875 L 16.78125 0 L 4.46875 0 L 4.46875 -40.171875 Z M 16.78125 -40.171875 "/></g></g></g><g fill="#ffffff" fill-opacity="1"><g transform="translate(1230.497301, 633.305556)"><g><path d="M 28.9375 -40.609375 C 33.644531 -40.609375 37.398438 -39.082031 40.203125 -36.03125 C 43.015625 -32.988281 44.421875 -28.800781 44.421875 -23.46875 L 44.421875 0 L 32.1875 0 L 32.1875 -21.8125 C 32.1875 -24.5 31.488281 -26.585938 30.09375 -28.078125 C 28.707031 -29.566406 26.835938 -30.3125 24.484375 -30.3125 C 22.128906 -30.3125 20.253906 -29.566406 18.859375 -28.078125 C 17.472656 -26.585938 16.78125 -24.5 16.78125 -21.8125 L 16.78125 0 L 4.46875 0 L 4.46875 -40.171875 L 16.78125 -40.171875 L 16.78125 -34.84375 C 18.019531 -36.625 19.695312 -38.03125 21.8125 -39.0625 C 23.925781 -40.09375 26.300781 -40.609375 28.9375 -40.609375 Z M 28.9375 -40.609375 "/></g></g></g><g fill="#ffffff" fill-opacity="1"><g transform="translate(1279.025283, 633.305556)"><g><path d="M 10.21875 0.578125 C 8.0625 0.578125 6.296875 -0.0546875 4.921875 -1.328125 C 3.554688 -2.597656 2.875 -4.171875 2.875 -6.046875 C 2.875 -7.960938 3.554688 -9.566406 4.921875 -10.859375 C 6.296875 -12.160156 8.0625 -12.8125 10.21875 -12.8125 C 12.332031 -12.8125 14.070312 -12.160156 15.4375 -10.859375 C 16.8125 -9.566406 17.5 -7.960938 17.5 -6.046875 C 17.5 -4.171875 16.8125 -2.597656 15.4375 -1.328125 C 14.070312 -0.0546875 12.332031 0.578125 10.21875 0.578125 Z M 10.21875 0.578125 "/></g></g></g></svg>