<svg version="1.2" xmlns="http://www.w3.org/2000/svg" viewBox="0 0 1400 999" width="1400" height="999">
	<title>shapes-svg</title>
	<defs>
		<linearGradient id="g1" x1="221.1" y1="706.6" x2="80.1" y2="487.6" gradientUnits="userSpaceOnUse">
			<stop offset="0" stop-color="#29315a" stop-opacity=".6"/>
			<stop offset=".7" stop-color="#30386b" stop-opacity=".4"/>
			<stop offset="1" stop-color="#29315a" stop-opacity=".5"/>
		</linearGradient>
		<linearGradient id="g2" x1="1263.9" y1="48.2" x2="1327.8" y2="236.8" gradientUnits="userSpaceOnUse">
			<stop offset="0" stop-color="#29315a" stop-opacity=".6"/>
			<stop offset=".7" stop-color="#30386b" stop-opacity=".4"/>
			<stop offset="1" stop-color="#29315a" stop-opacity=".5"/>
		</linearGradient>
		<linearGradient id="g3" x1="158.3" y1="-48.3" x2="134.1" y2="225.9" gradientUnits="userSpaceOnUse">
			<stop offset=".2" stop-color="#2d3363" stop-opacity=".3"/>
			<stop offset=".5" stop-color="#2d3363"/>
			<stop offset="1" stop-color="#2d3363" stop-opacity="0"/>
		</linearGradient>
	</defs>
	<style>
		.s0 { fill: url(#g1) } 
		.s1 { fill: url(#g2) } 
		.s2 { fill: url(#g3) } 
	</style>
	<path id="Layer" fill-rule="evenodd" class="s0" d="m274.9 594.5c26.2 45.5 29.7 97.9 13.9 144 13.7-46 9.9-95.6-14.8-138.3-43.1-74.6-135.7-104.6-221.8-77.8 80.7-36.3 177.4-6.2 222.7 72.1z"/>
	<path id="Layer" fill-rule="evenodd" class="s1" d="m1202.2 121.4c-11.1-38.6-3.9-78.1 16.5-109.4-18.8 31.6-25.2 69-14.8 105.3 18.3 63.3 82.1 102.7 151.7 98.8-67.3 12-134.2-28.3-153.4-94.7z"/>
	<path id="Layer" fill-rule="evenodd" class="s2" d="m218.2 76.1c3-17.2-8.1-33.7-24.8-36.7l-145.4-26.6c3.9-0.9 8.1-1.1 12.3-0.3l135.4 24.7c16.7 3.1 27.8 19.5 24.8 36.7l-24.2 141.5c-0.6 3.8-1.9 7.3-3.7 10.5z"/>
</svg>