<svg width="1400" height="433" viewBox="0 0 1400 433" fill="none" xmlns="http://www.w3.org/2000/svg">
<path fill-rule="evenodd" clip-rule="evenodd" d="M1399.48 384.167C1299.43 389.832 1207.71 332.579 1181.4 240.621C1166.32 187.907 1175.52 133.503 1202.67 87.608C1173.26 133.014 1162.88 190.416 1178.93 246.517C1206.56 343.096 1302.69 401.532 1399.48 384.167Z" fill="url(#paint0_linear_138_12)"/>
<path fill-rule="evenodd" clip-rule="evenodd" d="M193.505 276.885C195.882 272.815 197.592 268.262 198.461 263.349L230.854 80.1914C234.797 57.8938 219.918 36.6212 197.62 32.6777L16.4322 0.633421C10.8019 -0.362321 5.23705 -0.157979 0 1.06286L194.564 35.4727C216.862 39.4162 231.741 60.6888 227.797 82.9865L193.505 276.885Z" fill="url(#paint1_linear_138_12)"/>
<defs>
<linearGradient id="paint0_linear_138_12" x1="1267.11" y1="140.176" x2="1360.03" y2="414.186" gradientUnits="userSpaceOnUse">
<stop stop-color="#29315A" stop-opacity="0.58"/>
<stop offset="0.654302" stop-color="#30386B" stop-opacity="0.42"/>
<stop offset="1" stop-color="#29315A" stop-opacity="0.46"/>
</linearGradient>
<linearGradient id="paint1_linear_138_12" x1="147" y1="-78" x2="115.743" y2="276.885" gradientUnits="userSpaceOnUse">
<stop offset="0.232253" stop-color="#2D3363" stop-opacity="0.28"/>
<stop offset="0.499854" stop-color="#2D3363"/>
<stop offset="1" stop-color="#2D3363" stop-opacity="0"/>
</linearGradient>
</defs>
</svg>
